<?xml version="1.0" encoding="UTF-8"?>
<svg xmlns="http://www.w3.org/2000/svg" viewBox="0 0 455.14 422.5">
  <defs>
    <style>
      .cls-1 {
        fill: #ebebeb;
      }

      .cls-2 {
        fill: #ff725e;
      }

      .cls-3 {
        fill: #263238;
      }

      .cls-4 {
        fill: #fff;
      }

      .cls-5 {
        fill: #fafafa;
      }

      .cls-6 {
        opacity: .3;
      }

      .cls-7 {
        fill: #ffbf9d;
      }

      .cls-8 {
        fill: #455a64;
      }

      .cls-9 {
        fill: #e0e0e0;
      }

      .cls-10 {
        fill: #c17560;
      }

      .cls-11 {
        fill: #ff9a6c;
      }
    </style>
  </defs>
  <g id="Background_Complete" data-name="Background Complete">
    <g>
      <rect class="cls-9" x="316.72" y="4.16" width="81.02" height="134.1"/>
      <rect class="cls-1" x="314.03" y="4.16" width="81.02" height="134.1"/>
      <rect class="cls-4" x="317.48" y="6.88" width="74.12" height="128.66"/>
      <rect class="cls-1" x="331.59" y="23.6" width="45.57" height="95.23"/>
      <path class="cls-9" d="M331.59,85.13c-.11-8.9,7.89-17.58,16.7-18.82,4.2-.59,8.66.24,12.59-1.37,7.01-2.87,9.23-12.18,16.29-14.94l.32,68.83h-45.9v-33.7Z"/>
    </g>
    <g>
      <rect class="cls-9" x="43.13" y="4.48" width="81.02" height="134.1"/>
      <rect class="cls-1" x="40.44" y="4.48" width="81.02" height="134.1"/>
      <rect class="cls-4" x="43.89" y="7.2" width="74.12" height="128.66"/>
      <rect class="cls-1" x="58" y="23.92" width="45.58" height="95.23"/>
      <path class="cls-9" d="M58,85.45c-.11-8.9,7.89-17.58,16.7-18.82,4.2-.59,8.66.24,12.59-1.37,7.01-2.87,9.23-12.18,16.29-14.94l.32,68.83h-45.9v-33.7Z"/>
    </g>
    <g>
      <g>
        <path class="cls-9" d="M354.87,327.34c-4.38-2.75-9.39-4.47-14.53-5-2.37-.24-4.97-.17-6.87,1.26-.4.31-.8.76-.71,1.25.07.37.38.63.67.86,5.91,4.51,14.85,5.08,21.44,1.62"/>
        <path class="cls-9" d="M354.5,326.93c-3.29-2.57-6.6-5.15-9.38-8.26-2.79-3.11-5.05-6.79-5.88-10.88-.25-1.24-.33-2.66.47-3.64,7.48,5.84,13.36,13.4,14.8,22.78"/>
        <path class="cls-9" d="M354.79,327.28c-.56-4.09-.77-8.3.17-12.32.94-4.02,3.13-7.87,6.56-10.17,1.29,3.02.74,6.5-.17,9.66-1.41,4.88-3.61,9.53-6.51,13.7"/>
        <path class="cls-9" d="M362.12,340.42c-4.45.54-8.33,2.89-11.65,5.9-3.32,3.01-5.69,7.07-6.67,11.44,4.37-.27,8.07-3.35,10.76-6.8,2.69-3.45,4.55-7.24,7.5-10.47"/>
        <path class="cls-9" d="M363.72,342.52c-3.59-8.83-2.29-19.47,3.32-27.18,2.54,9.02,1.6,19.21-3.32,27.18"/>
        <path class="cls-9" d="M373.41,354.06c-4.04-.25-8.15.71-11.66,2.73-3.51,2.02-6.4,5.09-8.22,8.71-.25.49-.46,1.12-.13,1.56.29.38.84.42,1.32.39,3.92-.25,7.39-2.61,10.25-5.29,2.86-2.68,5.36-5.78,8.52-8.1"/>
        <path class="cls-9" d="M373.1,353.43c-2.08-6.67-2.21-13.93-.37-20.67.73-2.66,1.95-5.46,4.41-6.71.21-.11.45-.2.67-.12.21.08.33.29.43.49.88,1.83,1.13,3.91,1.04,5.93-.09,2.03-.51,4.02-.93,6-.77,3.67-1.19,7.61-3.2,10.78-.48.75-.9,1.56-1.28,2.37-.38.8-.38,1.09-.73,1.73"/>
        <path class="cls-9" d="M398.74,357.25c-1.9-7.23.12-15.99,4.67-21.92.34-.44.78-.9,1.33-.85.84.08,1.06,1.2,1.02,2.04-.33,7.39-2.79,14.66-7.02,20.73"/>
        <path class="cls-9" d="M401.06,358.83c8.78,2.29,18.86.06,26.16-5.32-4.33-2.19-9.43-2.82-14.16-1.74s-9.05,3.2-12,7.06"/>
        <path class="cls-9" d="M403.01,354.02c4.92-8.02,14.35-13.25,23.74-13.73-1.08,3.82-4.22,6.79-7.77,8.59s-7.5,2.58-11.4,3.33c-1.52.29-3.6.62-4.58,1.81"/>
        <path class="cls-9" d="M399.23,330.67c1.33-4.56,2.67-9.17,3.04-13.9.37-4.74-.31-9.69-2.77-13.75-4.59,8.89-5.06,19.28-.4,28.13"/>
        <path class="cls-9" d="M414.7,322.85c5.37-9.76,16.33-17.56,27.42-18.66-4.28,10.65-15.95,18.89-27.42,18.66"/>
        <path class="cls-9" d="M411.32,324.76c8.01,1.22,14.84,6.34,22.33,9.44,1.6.66,3.33,1.19,5.05.97,1.72-.23,3.41-1.38,3.8-3.07.32-1.4-.32-2.89-1.33-3.92-1.01-1.03-2.34-1.67-3.67-2.22-8.16-3.4-16.9-3.48-25.49-1.42"/>
        <path class="cls-9" d="M406.68,330.38c1.81.52,2.43,1.46,3.87,2.68,4.87,4.15,10.72,7.15,16.93,8.7.65.16,1.5.22,1.82-.36.28-.51-.07-1.13-.44-1.58-2.6-3.26-6.32-5.48-10.22-6.94-3.91-1.46-7.29-3.21-11.96-2.83"/>
        <path class="cls-9" d="M401.45,296.44c6.52,6.08,15.69,9.2,24.56,8.36.4-.04.84-.1,1.12-.4.62-.67-.12-1.71-.84-2.27-7.22-5.63-15.97-7.97-24.84-5.68"/>
        <path class="cls-9" d="M407.65,294.17c8.61-6.46,20.42-8.41,30.65-5.06-3.86,3.8-9.22,5.85-14.61,6.41-5.39.56-10.79-.04-16.05-1.35"/>
        <path class="cls-9" d="M405.19,278.58c-.71-7.21-.25-12.9-.75-20.14-.04-.58-.16-1.27-.71-1.48-.75-.29-1.38.64-1.63,1.4-2.15,6.68-.97,14.33,3.07,20.06"/>
        <path class="cls-9" d="M404.67,279.37c4.89-3.02,8.55-6.97,11.94-11.61,2.36-3.23,4.35-7.09,3.81-11.05-3.31-.07-6.46,1.76-8.61,4.28-2.15,2.52-3.43,5.66-4.39,8.83-.96,3.17-1.63,6.43-2.75,9.55"/>
        <path class="cls-9" d="M416.4,276.11c10.72-3.97,20.73-9.86,29.39-17.33-3.51-1.41-7.53-.57-11.04.85-8.02,3.24-14.57,8.7-18.5,16.4"/>
        <path class="cls-9" d="M407.97,283.32c5.42.59,10.93.98,16.32.08,5.29-.88,10.29-2.98,15.23-5.06.41-.17.86-.38,1.03-.79.19-.44-.01-.98-.37-1.3-.36-.32-.83-.48-1.3-.61-5.37-1.5-11.17-.8-16.46.98-5.29,1.78-9.62,3.9-14.45,6.7"/>
        <path class="cls-9" d="M376.99,296.69c-3.7-7.47-3.46-16.19-.26-23.89,2.25,3.43,2.53,7.8,2.11,11.88-.41,4.08-1.65,8.28-1.73,12.38"/>
        <path class="cls-9" d="M362.21,289.23c-9.24-.18-18.48,3.76-24.76,10.55,4.61.72,9.36-.47,13.56-2.51,4.19-2.05,7.92-4.92,11.62-7.78"/>
        <path class="cls-9" d="M352.27,285.91c-4.52-.37-8.87-.93-13.22.41-4.35,1.33-8.3,4.36-10.07,8.54,4.23.48,8.52-.58,12.39-2.34,3.88-1.76,7.4-4.19,10.9-6.61"/>
        <path class="cls-9" d="M366.99,286.06c-4.07-2.66-8.24-5.38-12.98-6.48-4.74-1.1-10.22-.29-13.52,3.28,3.83,2.25,8.48,2.51,12.93,2.51,4.44,0,9.89-.05,14.08,1.43"/>
        <path class="cls-9" d="M367.01,286.27c-6.95-6.83-9.59-19.09-6.79-28.42,5.46,8.3,7.91,18.55,6.79,28.42"/>
        <path class="cls-9" d="M386.13,266.93c1.31-3.05,2.23-6.25,3.41-9.35,1.18-3.1,2.64-6.16,4.86-8.62,2.22-2.46,5.3-4.3,8.61-4.46-2.07,9.39-8.31,17.79-16.71,22.48"/>
        <path class="cls-9" d="M382.67,270.96c-2.17-2.99-4.68-7.04-7.62-9.27-2.94-2.23-6.77-3.58-10.37-2.72,3.65,6.53,10.55,11.13,17.98,11.99"/>
        <path class="cls-9" d="M383.36,267.18c-1.42-3.61-2.85-7.27-3.43-11.11s-.23-7.94,1.74-11.29c3.82,7.21,5.05,14.96,1.89,22.48"/>
        <path class="cls-9" d="M386.16,244.78c2.16-7.15,8.71-12.42,15.78-14.83.89-.3,1.84-.56,2.77-.41.93.14,1.84.78,2.04,1.7.26,1.22-.75,2.31-1.69,3.11-5.51,4.71-11.98,8.28-18.89,10.43"/>
        <path class="cls-9" d="M386.24,238.93c.27-4.61.56-9.29,2.06-13.66,1.5-4.37,4.39-8.47,8.6-10.38.72,4.66-1.34,9.29-3.82,13.3-2.48,4.01-5.46,7.79-6.95,12.26"/>
        <path class="cls-9" d="M386.13,242.1c-1.79-5.21-1.97-11.83-5.09-16.37-2.18-3.17-5.68-5.34-7.55-8.7-1.25,3.14-.87,6.76.44,9.87,1.31,3.12,3.46,5.8,5.77,8.27,2.31,2.47,4.29,4.32,6.43,6.93"/>
        <path class="cls-9" d="M386.16,395.59c-.14,0-.26-34.77-.27-77.65,0-42.89.1-77.66.23-77.66s.26,34.76.27,77.66c0,42.88-.09,77.65-.23,77.65Z"/>
        <path class="cls-9" d="M416.55,291.44s-.46.21-1.31.49c-.94.32-2.15.72-3.6,1.21-3.03,1.03-7.2,2.53-11.72,4.38-4.48,1.92-8.7,3.48-11.11,5.56-1.2,1.03-1.89,2.14-2.23,2.95-.34.82-.41,1.32-.45,1.31-.02,0-.01-.13.01-.36.04-.23.1-.58.26-1.01.29-.86.96-2.05,2.18-3.15,1.21-1.1,2.89-2.09,4.82-2.99,1.93-.9,4.06-1.84,6.33-2.77,4.54-1.86,8.74-3.31,11.8-4.26,1.53-.48,2.78-.83,3.65-1.06.87-.23,1.35-.34,1.36-.3Z"/>
        <path class="cls-9" d="M426.51,266.98s-.11.15-.37.39c-.3.28-.66.62-1.12,1.05-1.04.94-2.45,2.22-4.17,3.78-3.6,3.2-8.47,7.55-13.86,12.34-5.41,4.82-10.09,9.42-13.33,12.88-1.62,1.73-2.9,3.16-3.77,4.17-.41.46-.74.85-1.01,1.15-.23.26-.36.39-.38.38-.01-.01.09-.16.3-.45.21-.28.52-.7.94-1.21.83-1.04,2.07-2.51,3.66-4.28,3.18-3.54,7.83-8.19,13.26-13.02,5.43-4.81,10.37-9.12,13.96-12.23,1.76-1.51,3.21-2.75,4.27-3.66.48-.39.87-.72,1.18-.98.27-.22.42-.33.43-.32Z"/>
        <path class="cls-9" d="M401.15,289.44c-.14-.06.99-2.67,2.11-5.97,1.14-3.3,1.67-6.09,1.82-6.06.13.01-.19,2.88-1.34,6.22-.57,1.67-1.19,3.14-1.68,4.18-.49,1.04-.85,1.66-.91,1.63Z"/>
        <path class="cls-9" d="M386.19,310.49s-.32-.33-.83-.97c-.57-.73-1.28-1.64-2.14-2.74-1.79-2.32-4.28-5.52-7.06-9.02-2.78-3.5-5.34-6.65-7.19-8.92-.87-1.08-1.6-1.99-2.18-2.7-.51-.64-.78-1.01-.75-1.03.03-.02.35.3.9.9.56.6,1.34,1.49,2.31,2.6,1.92,2.22,4.52,5.33,7.31,8.84,2.78,3.51,5.22,6.75,6.95,9.12.86,1.19,1.55,2.16,2.01,2.84.46.68.7,1.06.68,1.08Z"/>
        <path class="cls-9" d="M379.53,301.94c-.08.09-1.86-2.02-2.79-5.22-.69-2.26-.72-4.32-.63-5.27l.22.02c-.1.4-.17.61-.21.61-.04,0-.04-.23,0-.64l.22.02c.08.94.22,2.93.89,5.12.9,3.1,2.44,5.28,2.31,5.37Z"/>
        <path class="cls-9" d="M370.93,291.12c-.06.07-.64-.65-1.95-1.13-1.3-.5-3.26-.61-5.41-.43-2.15.16-4.07.54-5.45.88-1.38.34-2.22.61-2.24.54-.02-.06.78-.45,2.15-.88,1.37-.43,3.31-.88,5.51-1.04,2.17-.19,4.24-.02,5.58.6,1.36.6,1.86,1.45,1.82,1.46Z"/>
        <path class="cls-9" d="M368.89,288.5c-.04.08-1.13-.45-2.99-1.09-1.85-.64-4.48-1.3-7.45-1.53-2.97-.22-5.67.04-7.6.39-1.92.34-3.09.7-3.12.62-.01-.03.27-.15.79-.34.52-.19,1.29-.41,2.25-.63,1.93-.44,4.68-.76,7.7-.54,3.02.24,5.69.97,7.53,1.7.92.36,1.65.7,2.13.97.49.26.75.42.73.45Z"/>
        <path class="cls-9" d="M386.13,277.41c-.13.03-1.11-3.35-2.18-7.56-1.07-4.21-1.82-7.65-1.69-7.69.13-.03,1.11,3.35,2.18,7.56,1.07,4.21,1.82,7.65,1.69,7.69Z"/>
        <path class="cls-9" d="M386.27,277.41c-.15.05-.78-2.21-2.41-4.53-1.59-2.36-3.63-3.55-3.55-3.67.03-.05.59.15,1.37.71.79.55,1.76,1.47,2.59,2.67,1.7,2.41,2.12,4.81,2,4.82Z"/>
        <path class="cls-9" d="M386.16,377.06c-.05,0-.16-.84-.55-2.31-.39-1.48-1.12-3.57-2.32-6.02-2.4-4.91-6.77-11.13-12.33-17.37-2.75-3.14-5.42-6.11-7.69-8.95-2.27-2.84-4.14-5.54-5.5-7.93-1.37-2.39-2.26-4.44-2.78-5.88-.26-.73-.44-1.29-.55-1.68-.11-.39-.16-.6-.14-.6.05-.01.3.8.87,2.21.57,1.42,1.5,3.43,2.9,5.78,1.39,2.35,3.27,5.01,5.55,7.82,2.28,2.81,4.95,5.76,7.71,8.91,5.57,6.25,9.93,12.55,12.27,17.54,1.18,2.49,1.86,4.62,2.19,6.13.16.75.27,1.34.31,1.74.05.4.07.61.05.62Z"/>
        <path class="cls-9" d="M413.62,346.05s-.51.3-1.44.81c-.92.52-2.23,1.32-3.73,2.47-1.5,1.15-3.18,2.66-4.9,4.47-1.72,1.82-3.49,3.93-5.3,6.19-3.62,4.54-7,8.55-9.02,11.76-1.03,1.59-1.78,2.93-2.27,3.87-.49.94-.76,1.47-.79,1.45-.02,0,.03-.15.13-.41.11-.26.25-.65.48-1.13.44-.97,1.14-2.35,2.14-3.97,1.97-3.28,5.32-7.35,8.93-11.88,1.81-2.27,3.61-4.38,5.36-6.2,1.76-1.81,3.48-3.31,5.02-4.43,1.54-1.13,2.9-1.89,3.85-2.36.48-.24.87-.39,1.12-.5.26-.11.4-.15.41-.14Z"/>
        <path class="cls-9" d="M414.16,356.11c0,.07-1.16.21-3.04.44-1.87.24-4.48.56-7.21,1.42-2.72.89-4.98,2.24-6.46,3.39-1.49,1.15-2.19,2.1-2.26,2.05-.02-.02.12-.28.45-.7.33-.43.86-1,1.58-1.62,1.45-1.25,3.73-2.68,6.53-3.59,2.8-.89,5.44-1.14,7.33-1.3,1.9-.14,3.07-.15,3.08-.09Z"/>
        <path class="cls-9" d="M396.07,362.3c-.16-.09,1.21-2.18,2.28-5,1-2.84,1.23-5.33,1.41-5.3.06,0,.06.63-.05,1.63-.12,1-.36,2.38-.89,3.84-.53,1.46-1.23,2.68-1.76,3.53-.54.85-.93,1.34-.98,1.3Z"/>
        <path class="cls-9" d="M422.51,319.04s-.16.1-.49.26c-.38.17-.85.39-1.43.65-.63.27-1.39.61-2.24,1.06-.86.44-1.86.9-2.91,1.53-.53.3-1.08.62-1.66.94-.58.33-1.14.72-1.75,1.1-1.22.74-2.45,1.66-3.76,2.59-2.56,1.94-5.25,4.24-7.84,6.9-2.57,2.68-4.77,5.45-6.63,8.07-.89,1.34-1.76,2.6-2.46,3.84-.36.62-.73,1.2-1.04,1.79-.31.59-.6,1.15-.89,1.69-.59,1.06-1.01,2.08-1.43,2.96-.42.87-.74,1.64-.98,2.28-.24.59-.44,1.07-.6,1.45-.14.33-.23.5-.24.5-.02,0,.03-.19.15-.53.14-.39.31-.88.51-1.49.22-.65.51-1.43.91-2.32.39-.89.79-1.92,1.37-3,.28-.55.56-1.12.86-1.72.3-.59.67-1.19,1.02-1.81.69-1.27,1.55-2.54,2.44-3.9,1.85-2.66,4.06-5.46,6.65-8.16,2.61-2.68,5.33-4.98,7.93-6.92,1.33-.93,2.57-1.84,3.81-2.57.61-.37,1.19-.76,1.78-1.09.58-.32,1.15-.63,1.69-.92,1.06-.61,2.08-1.05,2.96-1.47.87-.43,1.65-.75,2.29-.99.6-.23,1.08-.41,1.47-.56.34-.12.52-.18.52-.16Z"/>
        <path class="cls-9" d="M400.78,333.6s.2-.85,1.19-1.78c.97-.93,2.75-1.78,4.81-1.85,2.06-.05,3.85.52,5.07.99,1.23.48,1.94.87,1.92.93-.03.07-.79-.21-2.03-.6-1.24-.38-2.98-.88-4.93-.82-1.95.06-3.62.81-4.6,1.61-1,.8-1.35,1.56-1.43,1.51Z"/>
        <path class="cls-9" d="M397.53,336.95c-.14-.08,1.09-1.87,1.37-4.45.32-2.57-.46-4.6-.31-4.64.06-.02.33.45.56,1.3.24.84.39,2.07.24,3.41-.16,1.34-.59,2.49-1.02,3.26-.42.77-.8,1.17-.85,1.13Z"/>
      </g>
      <path class="cls-9" d="M362.15,382.04c.75,13.29,4.75,26.8,10.91,40.46h26.78c5.87-13.53,9.6-27.02,10.26-40.46h-47.96Z"/>
      <path class="cls-5" d="M405.77,403.54c0,.14-8.82.25-19.69.25s-19.69-.11-19.69-.25,8.82-.25,19.69-.25,19.69.11,19.69.25Z"/>
      <path class="cls-5" d="M405.17,408.35c0,.14-8.27.25-18.46.25s-18.46-.11-18.46-.25,8.26-.25,18.46-.25,18.46.11,18.46.25Z"/>
      <path class="cls-5" d="M373.49,390.76c.14,0,.25,2.76.25,6.17s-.11,6.17-.25,6.17-.25-2.76-.25-6.17.11-6.17.25-6.17Z"/>
      <path class="cls-5" d="M387.84,390.76c.14,0,.25,2.86.25,6.39s-.11,6.39-.25,6.39-.25-2.86-.25-6.39.11-6.39.25-6.39Z"/>
      <path class="cls-5" d="M401.31,390.65c.14,0,.25,2.92.25,6.52s-.11,6.52-.25,6.52-.25-2.92-.25-6.52.11-6.52.25-6.52Z"/>
      <path class="cls-5" d="M409.26,390.76c0,.14-10.34.25-23.1.25s-23.1-.11-23.1-.25,10.34-.25,23.1-.25,23.1.11,23.1.25Z"/>
    </g>
  </g>
  <g id="Floor">
    <path class="cls-3" d="M450.3,421.12c0,.14-100.81.26-225.14.26s-225.16-.12-225.16-.26,100.79-.26,225.16-.26,225.14.12,225.14.26Z"/>
  </g>
  <g id="Plant">
    <g>
      <g>
        <path class="cls-8" d="M26.13,326.1c-1.56-.22-2.97.51-3.71,1.58-.74,1.07-.92,2.43-.89,3.77.03,1.18.23,2.44,1.02,3.52.95,1.28,2.64,2.1,4.28,2.33,1.63.23,3.21-.07,4.61-.58.36-1.53-.02-3.44-.36-5.09-.25-1.18-.67-2.39-1.49-3.43-.82-1.05-2.1-1.92-3.46-2.1Z"/>
        <path class="cls-3" d="M29.36,333.39s.11.14.29.42c.2.32.46.74.78,1.26.68,1.09,1.6,2.7,2.69,4.72,1.09,2.02,2.31,4.47,3.58,7.23,1.24,2.77,2.53,5.85,3.72,9.15,1.18,3.3,2.17,6.49,2.99,9.42.79,2.93,1.42,5.59,1.87,7.85.46,2.25.78,4.08.95,5.35.08.6.15,1.09.2,1.46.04.34.06.51.04.51-.01,0-.06-.17-.12-.5-.07-.37-.16-.85-.28-1.45-.22-1.26-.59-3.08-1.08-5.32-.48-2.24-1.14-4.89-1.95-7.81-.83-2.91-1.83-6.09-3.01-9.38-1.2-3.28-2.46-6.36-3.68-9.13-1.24-2.76-2.43-5.22-3.49-7.25-1.05-2.03-1.94-3.66-2.57-4.78-.29-.53-.53-.96-.71-1.29-.16-.3-.24-.46-.23-.46Z"/>
        <path class="cls-8" d="M25.31,350.55c-.71-1.07-.61-2.52-.03-3.66s1.6-1.99,2.67-2.69c.94-.61,2.01-1.14,3.13-1.11,1.34.03,2.57.87,3.31,1.99.74,1.11,1.04,2.47,1.13,3.8-1.08,1.1-2.73,1.83-4.14,2.45-1.02.45-2.11.77-3.22.71-1.11-.06-2.23-.56-2.85-1.49Z"/>
        <path class="cls-8" d="M42.19,331.66c-.26-1.5-1.21-2.52-2.24-2.82s-2.13.02-3.16.52c-.91.44-1.83,1.07-2.44,2.17-.73,1.32-.91,3.15-.64,4.72.27,1.57.93,2.9,1.7,4,1.28-.21,2.66-1.23,3.84-2.12.85-.64,1.66-1.45,2.25-2.57.59-1.12.91-2.59.69-3.89Z"/>
        <path class="cls-3" d="M35.84,333.97c.06,0-.02.76-.11,1.97-.09,1.21-.16,2.88-.07,4.73.09,1.84.34,3.5.58,4.69.24,1.19.44,1.91.38,1.93-.04.02-.34-.68-.66-1.87-.32-1.18-.62-2.86-.71-4.73-.09-1.87.03-3.56.19-4.78.16-1.21.34-1.95.39-1.94Z"/>
        <path class="cls-3" d="M39.44,353.86c-.11.05-.78-1.43-2.12-2.87-.66-.72-1.34-1.29-1.87-1.65-.52-.37-.9-.5-.88-.56,0-.05.44,0,1.03.32.59.31,1.33.88,2.02,1.62,1.39,1.5,1.92,3.11,1.82,3.13Z"/>
      </g>
      <g>
        <path class="cls-3" d="M59.88,322.53s-.04.19-.15.53c-.12.38-.29.87-.49,1.49-.44,1.29-1.05,3.16-1.77,5.49-.72,2.33-1.51,5.12-2.31,8.24-.78,3.12-1.57,6.57-2.26,10.22-.68,3.65-1.21,7.15-1.62,10.35-.39,3.2-.68,6.08-.85,8.51-.18,2.43-.3,4.4-.35,5.76-.03.65-.06,1.17-.08,1.57-.02.36-.04.55-.06.55-.01,0-.02-.19-.02-.55,0-.4,0-.92,0-1.57,0-1.36.08-3.34.23-5.77.14-2.44.4-5.33.77-8.54.39-3.2.91-6.71,1.59-10.38.7-3.66,1.5-7.12,2.3-10.24.82-3.12,1.64-5.91,2.4-8.23.75-2.32,1.4-4.19,1.89-5.46.23-.61.42-1.09.56-1.47.13-.33.21-.51.22-.5Z"/>
        <path class="cls-8" d="M67.89,317.39c-.6-1.51-2.18-2.48-3.79-2.7-1.61-.22-3.25.21-4.76.82-1.33.53-2.65,1.26-3.44,2.45-.94,1.42-.96,3.31-.34,4.9.62,1.58,1.81,2.89,3.14,3.95,1.93-.33,3.9-1.5,5.57-2.53,1.21-.74,2.35-1.64,3.09-2.84.74-1.2,1.04-2.74.53-4.05Z"/>
        <path class="cls-8" d="M43.24,342.27c-.71-1.07-.61-2.52-.03-3.66.59-1.14,1.6-1.99,2.67-2.69.94-.61,2.01-1.14,3.13-1.11,1.34.03,2.57.87,3.31,1.99.74,1.11,1.04,2.47,1.13,3.8-1.08,1.1-2.73,1.83-4.14,2.45-1.02.45-2.11.77-3.22.71-1.11-.06-2.23-.56-2.85-1.49Z"/>
        <path class="cls-8" d="M66.94,340.98c.85-.98.95-2.45.52-3.67-.44-1.22-1.34-2.22-2.32-3.06-.86-.74-1.86-1.41-3-1.53-1.35-.15-2.7.54-3.59,1.56-.89,1.02-1.38,2.34-1.64,3.67.94,1.25,2.49,2.2,3.83,3.01.96.58,2.02,1.06,3.14,1.14,1.12.09,2.32-.27,3.06-1.11Z"/>
        <path class="cls-8" d="M50.16,322.22c-1.56-.22-2.97.51-3.71,1.58-.74,1.07-.92,2.43-.89,3.77.03,1.18.23,2.44,1.02,3.52.95,1.28,2.64,2.1,4.28,2.33,1.63.23,3.21-.07,4.61-.58.36-1.53-.02-3.44-.36-5.08-.25-1.18-.67-2.39-1.49-3.43-.82-1.05-2.1-1.92-3.46-2.1Z"/>
        <path class="cls-3" d="M53.1,340.22c.1-.03.56,1.16.64,2.72.09,1.56-.23,2.8-.33,2.77-.12-.02.03-1.25-.06-2.75-.08-1.51-.36-2.71-.24-2.74Z"/>
        <path class="cls-3" d="M57.78,336.66c.09.06-.66,1.29-1.67,2.75-1.01,1.46-1.91,2.59-2,2.52-.09-.06.66-1.29,1.67-2.75,1.01-1.46,1.91-2.59,2-2.52Z"/>
        <path class="cls-3" d="M55.31,336.38c-.11,0-.15-1.07-.08-2.38.06-1.31.2-2.37.31-2.36.11,0,.15,1.07.08,2.38-.06,1.31-.2,2.37-.31,2.36Z"/>
      </g>
      <rect class="cls-2" x="39.49" y="370.88" width="18.24" height="1.71" rx=".83" ry=".83"/>
      <path class="cls-2" d="M63.68,390.14c-.61-6.68-5.87-7.59-6.88-8.3-.22-.15-.41-.35-.58-.56-.63-.78-.94-1.79-.94-2.79v-6.75h-13.2v6.75c0,1.01-.3,2.01-.94,2.79-.17.21-.36.4-.58.56-1.01.71-6.27,1.62-6.88,8.3s-2.83,21.85,1.11,26.71c3.63,4.47,7.19,4.74,13.1,4.75h0c.27,0,.53,0,.78,0h.78c5.91-.02,9.47-.28,13.1-4.76,3.95-4.86,1.72-20.03,1.11-26.71Z"/>
      <path class="cls-3" d="M57.31,372.64c0,.11-3.9.2-8.7.2s-8.7-.09-8.7-.2,3.89-.2,8.7-.2,8.7.09,8.7.2Z"/>
      <path class="cls-3" d="M35.06,401.9c-.05,0-.17-.95-.26-2.51-.09-1.55-.13-3.71-.02-6.08.06-1.19.12-2.31.27-3.35.15-1.03.46-1.95.9-2.62.43-.68.95-1.1,1.33-1.31.39-.22.64-.26.64-.24.05.06-.97.36-1.74,1.7-.38.65-.65,1.53-.77,2.53-.13,1-.17,2.14-.23,3.31-.11,2.36-.11,4.5-.1,6.05.01,1.55.04,2.51-.02,2.52Z"/>
    </g>
  </g>
  <g id="Chair">
    <g>
      <g>
        <path class="cls-3" d="M231.64,268.32h56.01c6.27,0,11.36,5.09,11.36,11.36h-67.38v-11.36h0Z"/>
        <path class="cls-9" d="M241.01,326.41l-25.71-.78-.37-.18c-2.8-1.31-5.38-6.21-3.51-49.38.14-3.13,2.68-5.57,5.79-5.57h14.99v4h-14.99c-.96,0-1.75.75-1.8,1.71-.54,12.42-1.47,41.15,1.18,45.45l24.54.75-.12,4ZM216.8,321.95h0Z"/>
      </g>
      <g>
        <rect class="cls-9" x="213.28" y="331.57" width="10.95" height="58.57" transform="translate(437.51 721.71) rotate(180)"/>
        <path class="cls-9" d="M257.93,322.14c-.18,0-33.7,10.52-33.7,10.52h-10.95l-38.43-10.52h83.08Z"/>
        <path class="cls-9" d="M265.26,410.92s-5.07-15.47-12.05-19.21c-11.23-6.01-37.1-8.89-37.1-8.89l-2.84,7.32s34.5,1.36,39.93,8.32c5.01,6.43,8.66,12.46,8.66,12.46h3.39Z"/>
        <circle class="cls-3" cx="260.98" cy="413.79" r="7.33" transform="translate(-62.78 47.03) rotate(-9.2)"/>
        <path class="cls-9" d="M171.74,410.62s5.07-15.47,12.05-19.21c11.23-6.01,37.09-8.89,37.09-8.89l2.84,7.32s-34.5,1.36-39.93,8.32c-5.01,6.43-8.66,12.46-8.66,12.46h-3.39Z"/>
        <circle class="cls-3" cx="173.74" cy="413.79" r="7.33" transform="translate(-241.71 244.05) rotate(-45)"/>
        <polyline class="cls-9" points="222.53 386.75 220.92 406.65 216.4 407.54 216.4 386.75"/>
        <circle class="cls-3" cx="218.29" cy="413.79" r="7.33" transform="translate(-225.13 562.98) rotate(-80.78)"/>
        <path class="cls-3" d="M213.53,332.89c0,.13,2.34.23,5.22.23s5.22-.1,5.22-.23-2.34-.23-5.22-.23-5.22.1-5.22.23Z"/>
        <path class="cls-3" d="M213.33,384.06c-.08.08,2.15,1.39,5.24,1.45,3.09.1,5.38-1.09,5.31-1.18-.04-.14-2.33.81-5.3.71-2.97-.06-5.2-1.13-5.25-.99Z"/>
      </g>
      <path class="cls-8" d="M159.57,162.72h85.58c3.25,0,5.9,2.64,5.9,5.9v124.66c0,9.61-7.8,17.41-17.41,17.41h-62.56c-9.61,0-17.41-7.8-17.41-17.41v-124.66c0-3.25,2.64-5.9,5.9-5.9Z" transform="translate(404.72 473.4) rotate(180)"/>
      <path class="cls-8" d="M273.71,322.14h-113.02c-3.87,0-7.01-3.14-7.01-7.01h0c0-3.87,3.14-7.01,7.01-7.01h113.02c3.87,0,7.01,3.14,7.01,7.01h0c0,3.87-3.14,7.01-7.01,7.01Z"/>
      <path class="cls-3" d="M163.88,301.38c-.14,0-.26-28.09-.26-62.73s.12-62.73.26-62.73.26,28.08.26,62.73-.12,62.73-.26,62.73Z"/>
      <path class="cls-3" d="M265.3,308.3s-.09.01-.28.01c-.21,0-.48,0-.81-.01-.75-.02-1.79-.06-3.11-.1-2.74-.09-6.64-.23-11.43-.39-9.66-.3-23-.57-37.74-.51-14.74.07-28.09.45-37.74.83-4.8.2-8.69.37-11.43.49-1.32.05-2.36.1-3.11.13-.33,0-.6.01-.81.02-.18,0-.28,0-.28-.01,0,0,.09-.02.27-.04.21-.02.48-.04.81-.07.75-.05,1.79-.13,3.1-.22,2.7-.19,6.6-.41,11.43-.65,9.65-.48,23-.92,37.75-.98,14.75-.06,28.1.27,37.75.66,4.83.2,8.73.39,11.43.55,1.32.08,2.36.15,3.11.2.33.03.6.05.81.06.18.02.27.03.27.04Z"/>
      <g>
        <path class="cls-3" d="M187.52,203.71c-.12.11-1.52-1.4-3.72-2.56-2.19-1.18-4.23-1.5-4.2-1.66,0-.13,2.15-.03,4.45,1.2,2.31,1.22,3.59,2.95,3.48,3.02Z"/>
        <path class="cls-3" d="M195.7,198.04c.06.15-1.83.92-3.77,2.45-1.96,1.52-3.15,3.17-3.28,3.08-.12-.06.93-1.91,2.96-3.49,2.02-1.6,4.06-2.17,4.09-2.05Z"/>
        <path class="cls-3" d="M187.19,206.2c.05.15-1.42.71-3.02,1.76-1.61,1.04-2.7,2.17-2.82,2.07-.11-.08.86-1.41,2.53-2.5,1.67-1.1,3.27-1.46,3.3-1.33Z"/>
        <path class="cls-3" d="M196.17,209.34c-.09.12-1.64-.88-3.64-1.94-2-1.07-3.7-1.79-3.65-1.93.04-.13,1.85.38,3.89,1.47,2.04,1.08,3.48,2.29,3.4,2.4Z"/>
        <g>
          <path class="cls-8" d="M190.35,204.8c0,1.24-1.01,2.25-2.25,2.25s-2.25-1.01-2.25-2.25,1.01-2.25,2.25-2.25,2.25,1.01,2.25,2.25Z"/>
          <path class="cls-3" d="M190.35,204.8s-.06-.2-.17-.52c-.11-.32-.35-.77-.83-1.11-.47-.34-1.22-.52-1.93-.25-.71.25-1.31,1.01-1.3,1.88,0,.88.59,1.63,1.3,1.88.71.28,1.46.1,1.93-.24.48-.34.72-.8.83-1.11.11-.32.13-.52.17-.52.03,0,.08.2.03.57-.06.36-.26.91-.8,1.36-.52.44-1.42.72-2.32.4-.89-.28-1.67-1.23-1.66-2.33-.01-1.11.77-2.05,1.66-2.33.9-.31,1.8-.04,2.32.4.54.44.75,1,.8,1.36.06.37,0,.57-.03.57Z"/>
        </g>
      </g>
      <g>
        <path class="cls-3" d="M226.47,203.38c-.12.11-1.52-1.4-3.72-2.56-2.19-1.18-4.23-1.5-4.2-1.66,0-.13,2.15-.03,4.45,1.2,2.31,1.22,3.59,2.95,3.48,3.02Z"/>
        <path class="cls-3" d="M234.66,197.71c.06.15-1.83.92-3.77,2.45-1.96,1.52-3.15,3.17-3.28,3.08-.12-.06.93-1.91,2.96-3.49,2.02-1.6,4.06-2.17,4.09-2.05Z"/>
        <path class="cls-3" d="M226.14,205.87c.05.15-1.42.71-3.02,1.76-1.61,1.04-2.7,2.17-2.82,2.07-.11-.08.86-1.41,2.53-2.5,1.67-1.1,3.27-1.46,3.3-1.33Z"/>
        <path class="cls-3" d="M235.12,209.02c-.09.12-1.64-.88-3.64-1.94-2-1.07-3.7-1.79-3.65-1.93.04-.13,1.85.38,3.89,1.47,2.04,1.08,3.48,2.29,3.4,2.4Z"/>
        <g>
          <path class="cls-8" d="M229.3,204.47c0,1.24-1.01,2.25-2.25,2.25s-2.25-1.01-2.25-2.25,1.01-2.25,2.25-2.25,2.25,1.01,2.25,2.25Z"/>
          <path class="cls-3" d="M229.3,204.47s-.06-.2-.17-.52c-.11-.32-.35-.77-.83-1.11-.47-.34-1.22-.52-1.93-.24-.71.25-1.31,1.01-1.3,1.88,0,.88.59,1.63,1.3,1.88.71.28,1.46.1,1.93-.25.48-.34.72-.8.83-1.11.11-.32.13-.52.17-.52.03,0,.08.2.03.57-.06.36-.26.91-.8,1.36-.52.44-1.42.72-2.32.4-.89-.28-1.67-1.23-1.66-2.33-.01-1.11.77-2.05,1.66-2.33.9-.31,1.8-.04,2.32.4.54.44.75,1,.8,1.36.06.37,0,.57-.03.57Z"/>
        </g>
      </g>
      <g>
        <path class="cls-3" d="M187.52,253.51c-.12.11-1.52-1.4-3.72-2.56-2.19-1.18-4.23-1.5-4.2-1.66,0-.13,2.15-.03,4.45,1.2,2.31,1.22,3.59,2.95,3.48,3.02Z"/>
        <path class="cls-3" d="M195.7,247.84c.06.15-1.83.92-3.77,2.45-1.96,1.52-3.15,3.17-3.28,3.08-.12-.06.93-1.91,2.96-3.49,2.02-1.6,4.06-2.17,4.09-2.05Z"/>
        <path class="cls-3" d="M187.19,256c.05.15-1.42.71-3.02,1.76-1.61,1.04-2.7,2.17-2.82,2.07-.11-.08.86-1.41,2.53-2.5,1.67-1.1,3.27-1.46,3.3-1.33Z"/>
        <path class="cls-3" d="M196.17,259.15c-.09.12-1.64-.88-3.64-1.94-2-1.07-3.7-1.79-3.65-1.93.04-.13,1.85.38,3.89,1.47,2.04,1.08,3.48,2.29,3.4,2.4Z"/>
        <g>
          <path class="cls-8" d="M190.35,254.6c0,1.24-1.01,2.25-2.25,2.25s-2.25-1.01-2.25-2.25,1.01-2.25,2.25-2.25,2.25,1.01,2.25,2.25Z"/>
          <path class="cls-3" d="M190.35,254.6s-.06-.2-.17-.52c-.11-.32-.35-.77-.83-1.11-.47-.34-1.22-.52-1.93-.25-.71.25-1.31,1.01-1.3,1.88,0,.88.59,1.63,1.3,1.88.71.28,1.46.1,1.93-.25.48-.34.72-.8.83-1.11.11-.32.13-.52.17-.52.03,0,.08.2.03.57-.06.36-.26.91-.8,1.36-.52.44-1.42.72-2.32.4-.89-.28-1.67-1.23-1.66-2.33-.01-1.11.77-2.05,1.66-2.33.9-.31,1.8-.04,2.32.4.54.44.75,1,.8,1.36.06.37,0,.57-.03.57Z"/>
        </g>
      </g>
      <g>
        <path class="cls-3" d="M226.11,253.19c-.12.11-1.52-1.4-3.72-2.56-2.19-1.18-4.23-1.5-4.2-1.66,0-.13,2.15-.03,4.45,1.2,2.31,1.22,3.59,2.95,3.48,3.02Z"/>
        <path class="cls-3" d="M234.3,247.52c.06.15-1.83.92-3.77,2.45-1.96,1.52-3.15,3.17-3.28,3.08-.12-.06.93-1.91,2.96-3.49,2.02-1.6,4.06-2.17,4.09-2.05Z"/>
        <path class="cls-3" d="M225.78,255.68c.05.15-1.42.71-3.02,1.76-1.61,1.04-2.7,2.17-2.82,2.07-.11-.08.86-1.41,2.53-2.5,1.67-1.1,3.27-1.46,3.3-1.33Z"/>
        <path class="cls-3" d="M234.76,258.82c-.09.12-1.64-.88-3.64-1.94-2-1.07-3.7-1.79-3.65-1.93.04-.13,1.85.38,3.89,1.47,2.04,1.08,3.48,2.29,3.4,2.4Z"/>
        <g>
          <path class="cls-8" d="M228.94,254.28c0,1.24-1.01,2.25-2.25,2.25s-2.25-1.01-2.25-2.25,1.01-2.25,2.25-2.25,2.25,1.01,2.25,2.25Z"/>
          <path class="cls-3" d="M228.94,254.28s-.06-.2-.17-.52c-.11-.32-.35-.77-.83-1.11-.47-.34-1.22-.52-1.93-.24-.71.25-1.31,1.01-1.3,1.88,0,.88.59,1.63,1.3,1.88.71.28,1.46.1,1.93-.25.48-.34.72-.8.83-1.11.11-.32.13-.52.17-.52.03,0,.08.2.03.57-.06.36-.26.92-.8,1.36-.52.44-1.42.72-2.32.4-.89-.28-1.67-1.23-1.66-2.34-.01-1.11.77-2.05,1.66-2.33.9-.31,1.8-.04,2.32.4.54.44.75,1,.8,1.36.06.37,0,.57-.03.57Z"/>
        </g>
      </g>
      <g>
        <path class="cls-3" d="M158.83,268.32h56.01c6.27,0,11.36,5.09,11.36,11.36h-67.38v-11.36h0Z"/>
        <path class="cls-9" d="M199.53,326.41l-49.71-.68c-4.98-.07-9-3.86-9.35-8.83-.84-11.76-2.21-32.7-1.85-40.87.14-3.11,2.68-5.54,5.79-5.54h14.99v4h-14.99c-.96,0-1.75.75-1.8,1.71-.35,7.97,1.01,28.74,1.84,40.41.21,2.88,2.54,5.08,5.42,5.11l49.71.68-.05,4Z"/>
      </g>
    </g>
  </g>
  <g id="Picture">
    <g>
      <rect class="cls-10" x="178.94" y="17.03" width="76.51" height="108.37"/>
      <rect class="cls-4" x="182.18" y="19.87" width="70.03" height="102.68"/>
      <rect class="cls-1" x="201.7" y="41.78" width="30.99" height="38.67"/>
      <g>
        <path class="cls-3" d="M225.25,76.89c-.26.11-.85-.49-1.56-1.79-.68-1.31-1.46-3.34-1.82-6.01-.08-.67-.15-1.37-.17-2.11-.02-.37-.01-.74-.01-1.13,0-.19.01-.39.02-.58,0-.19,0-.3,0-.43,0-.25-.06-.49-.1-.52-.01-.01-.01.05.08.16.09.12.28.25.42.28.18.05.32.03.33.04.01,0-.07.04-.2.11-.18.09-.36.19-.53.29-.19.1-.39.2-.58.3-1.58.79-3.3,1.49-5.14,2.04-.93.28-1.85.52-2.86.72-1.07.2-2.21.34-3.55.15-.67-.1-1.38-.31-2.08-.71-.7-.4-1.32-1-1.75-1.7-.44-.71-.65-1.51-.71-2.22-.06-.72.01-1.37.14-1.97.25-1.18.74-2.19,1.21-3.01.22-.44.49-.84.76-1.24.25-.41.55-.77.82-1.14,1.14-1.45,2.4-2.63,3.64-3.61,1.24-.98,2.46-1.77,3.6-2.4,2.28-1.29,4.21-2.06,5.57-2.52,1.37-.45,2.19-.56,2.32-.3.14.26-.43.86-1.54,1.75-1.1.89-2.78,2.05-4.69,3.56-1.91,1.5-4.08,3.39-5.77,5.84-.2.31-.43.61-.6.95-.19.33-.39.65-.54,1-.37.71-.61,1.34-.72,1.94-.11.6-.02,1.02.1,1.17.07.09.14.17.27.24.13.07.34.15.62.19.57.09,1.34.04,2.11-.1.83-.15,1.7-.36,2.51-.57,1.64-.44,3.2-.98,4.65-1.59.18-.08.36-.16.54-.23.19-.08.38-.17.57-.25.23-.1.53-.23.93-.33.4-.09.94-.14,1.51.01.52.14,1.07.47,1.41.88.35.41.52.82.63,1.17.2.7.18,1.23.16,1.72-.01.23-.05.49-.07.67-.02.17-.05.33-.07.5-.04.33-.08.65-.11.97-.06.64-.08,1.26-.1,1.85-.04,2.37.22,4.31.4,5.69.19,1.37.26,2.18-.01,2.3Z"/>
        <path class="cls-3" d="M217.41,72.79c.36,1.11-.7,2.46-2.38,3-1.68.55-3.33.09-3.69-1.02-.36-1.11.7-2.46,2.38-3,1.68-.55,3.33-.09,3.69,1.02Z"/>
        <path class="cls-3" d="M225.09,52.24c-.07-.27.02-.61.43-.85.4-.24,1.11-.3,1.85.06.36.18.73.45,1.04.87.31.41.57.99.6,1.7.04.7-.22,1.51-.69,2.09-.46.59-1.07.99-1.74,1.21-.67.21-1.4.25-2.12.04-.72-.19-1.4-.7-1.78-1.29-.4-.59-.52-1.21-.51-1.72,0-.52.14-.96.33-1.32.39-.72,1-1.09,1.46-1.13.47-.05.74.18.85.44.11.27.11.58.2.84.08.26.23.47.39.6.08.07.17.11.25.11-.1,0-.3.08-.36.14-.06.05,0,.04.04-.15.05-.17.01-.38,0-.38,0,0,.09.2.23.3.15.12.2.1.12.1-.08-.01-.29.05-.37.1.07-.04.11-.13.14-.23.05-.2.05-.46-.04-.72-.08-.26-.26-.5-.33-.79Z"/>
      </g>
    </g>
  </g>
  <g id="Desk">
    <g>
      <rect class="cls-3" x="337.91" y="285.61" width="10" height="135.46"/>
      <rect class="cls-3" x="77.24" y="285.61" width="10" height="135.46"/>
      <rect class="cls-10" x="35.34" y="271.56" width="329.47" height="14.05"/>
    </g>
    <g>
      <g>
        <rect class="cls-9" x="55.32" y="167.31" width="108.77" height="82.15" rx="5.52" ry="5.52"/>
        <path class="cls-3" d="M158.57,249.45s.33,0,.95-.11c.61-.11,1.55-.39,2.51-1.17.93-.77,1.89-2.13,1.97-3.94.02-1.8,0-3.9,0-6.26-.02-9.43-.05-23.06-.08-39.9,0-4.21-.01-8.62-.02-13.22,0-2.3,0-4.64,0-7.03,0-1.19,0-2.4,0-3.62-.01-.6.02-1.24-.02-1.81-.05-.59-.2-1.17-.44-1.71-.48-1.09-1.36-2.01-2.43-2.56-.54-.28-1.12-.46-1.73-.54-.59-.07-1.24-.04-1.88-.05-2.56,0-5.16,0-7.8,0-5.28,0-10.71,0-16.27.01-22.27,0-46.76.01-72.46.02-1.54,0-3.04.7-4.03,1.87-.5.58-.85,1.27-1.05,2-.21.73-.2,1.49-.19,2.3,0,3.17,0,6.33,0,9.46,0,6.26,0,12.43,0,18.49,0,12.12-.01,23.81-.02,34.95,0,1.39,0,2.78,0,4.15,0,.69,0,1.37,0,2.06,0,.69-.04,1.37.08,2,.21,1.28.92,2.46,1.93,3.25,1.01.81,2.28,1.19,3.57,1.14,5.28,0,10.4,0,15.35.01,9.9.01,19.13.02,27.55.03,16.84.03,30.46.06,39.9.08,4.7.02,8.35.04,10.85.05,1.23.01,2.17.02,2.82.03.64,0,.96.03.96.03,0,0-.33.02-.96.03-.65,0-1.59.01-2.82.03-2.49.01-6.15.03-10.85.05-9.43.02-23.06.05-39.9.08-8.42,0-17.65.02-27.55.03-4.95,0-10.07,0-15.35.01-1.35.05-2.78-.36-3.86-1.24-1.1-.86-1.87-2.14-2.11-3.54-.13-.71-.08-1.4-.09-2.08,0-.68,0-1.37,0-2.06,0-1.37,0-2.76,0-4.15,0-11.14,0-22.83-.02-34.95,0-6.06,0-12.23,0-18.49,0-3.13,0-6.28,0-9.46,0-.78-.02-1.63.21-2.43.22-.8.61-1.56,1.16-2.2,1.08-1.28,2.74-2.06,4.42-2.05,25.7,0,50.19.01,72.46.02,5.57,0,11,0,16.27.01,2.64,0,5.24,0,7.8,0,.64,0,1.27-.02,1.94.06.65.08,1.29.28,1.87.58,1.16.6,2.11,1.59,2.62,2.78.26.59.42,1.22.47,1.85.05.65.01,1.23.02,1.85,0,1.22,0,2.42,0,3.62,0,2.39,0,4.73,0,7.03,0,4.6-.01,9.01-.02,13.22-.03,16.84-.06,30.47-.08,39.9-.01,2.36,0,4.44-.04,6.26-.1,1.86-1.1,3.24-2.06,4.01-.99.78-1.94,1.05-2.57,1.14-.32.05-.56.06-.72.06-.16,0-.24,0-.24,0Z"/>
      </g>
      <g>
        <polygon class="cls-9" points="122.51 226.82 116.1 268.13 140.95 268.13 140.95 271.56 82.29 271.56 91 226.82 122.51 226.82"/>
        <path class="cls-3" d="M122.51,226.82s-.2.01-.57.02c-.39,0-.94.01-1.65.02-1.46.01-3.57.03-6.29.05-5.45.02-13.3.06-23,.1l.18-.15c-2.36,12.23-5.33,27.6-8.65,44.76l-.25-.3c8.14,0,16.85,0,25.82,0,11.51,0,22.57,0,32.84.01l-.25.25c0-1.16,0-2.3,0-3.43l.24.24c-9-.01-17.35-.02-24.85-.03h-.24s.04-.24.04-.24c1.99-12.53,3.62-22.82,4.77-30,.58-3.58,1.03-6.39,1.34-8.32.16-.94.28-1.68.36-2.19.08-.5.14-.76.14-.76,0,0-.02.24-.09.72-.07.51-.18,1.23-.31,2.16-.29,1.93-.7,4.72-1.23,8.29-1.09,7.23-2.66,17.58-4.56,30.18l-.21-.24c7.5-.01,15.84-.02,24.85-.03h.24s0,.24,0,.24c0,1.13,0,2.27,0,3.43v.25s-.25,0-.25,0c-10.27,0-21.33,0-32.84.01-8.97,0-17.68,0-25.82,0h-.31s.06-.3.06-.3c3.36-17.15,6.38-32.51,8.77-44.73l.03-.15h.15c9.75.04,17.65.08,23.12.1,2.69.02,4.79.04,6.24.05.69,0,1.23.01,1.61.02.36,0,.53.02.53.02Z"/>
      </g>
      <g class="cls-6">
        <polygon points="115.77 271.56 116.1 268.13 140.95 268.13 140.95 271.56 115.77 271.56"/>
      </g>
      <g class="cls-6">
        <polygon points="122.51 226.82 128.92 249.45 119 249.45 122.51 226.82"/>
      </g>
    </g>
    <g>
      <rect class="cls-9" x="186.41" y="267.71" width="52.53" height="3.84"/>
      <path class="cls-3" d="M238.94,271.55s-.01-.09-.02-.26c0-.19-.01-.43-.02-.74-.01-.67-.03-1.62-.05-2.85l.09.09c-7.96.1-28.48.17-52.52.17h0c.12-.12-.26.26.26-.26h0v.98c0,.33,0,.65,0,.97,0,.64,0,1.28,0,1.89l-.26-.26c14.64.04,27.72.08,37.19.11,4.71.03,8.53.06,11.2.08,1.3.02,2.32.03,3.05.04.33,0,.59.01.8.02.18,0,.28.01.29.02s-.08.01-.25.02c-.2,0-.45.01-.77.02-.72,0-1.72.02-2.99.04-2.66.02-6.45.05-11.14.08-9.52.03-22.67.07-37.38.11h-.26s0-.26,0-.26c0-.61,0-1.24,0-1.89,0-.32,0-.65,0-.97v-.97h0c.52-.53.14-.16.26-.27h0c24.04,0,44.57.07,52.52.17h.09s0,.09,0,.09c-.02,1.25-.04,2.21-.05,2.9,0,.29-.02.53-.02.72,0,.16-.01.23-.02.23Z"/>
    </g>
  </g>
  <g id="Character">
    <g>
      <g>
        <g>
          <path class="cls-7" d="M408.62,381.29c.26-.15,6.45,8.97,6.49,9.84.04.87-2.08,4.48-1.15,5.54.93,1.05,25.09,9.71,27.5,9.38,2.41-.34,4.46-1.68,4.46-1.68,0,0-13.33-13.05-17.1-16.73s-8.91-12.8-8.91-12.8l-11.29,6.47Z"/>
          <path class="cls-3" d="M414.92,391.93c-.14.38-2.39,4.84-1.56,9.08.82,4.24,9.86,20.11,9.86,20.11l1.71-.64s-5.72-12.29-5.67-13.42c.05-1.12,1.32-3.19,8.13-.87s8.23,7.12,13.28,6.6c5.05-.53,15.01-6.91,14.45-7.91-.55-1-10.05-1.35-10.05-1.35,0,0-2.53,2.22-6.52,1.01-3.99-1.21-23.63-12.6-23.63-12.6Z"/>
        </g>
        <g>
          <path class="cls-7" d="M372.46,376.7c.29,0,.1,8.77-3.7,13.05-.57.64-4.15,2.6-3.96,3.91s15.26,20.36,17.42,21.29c2.16.93,4.57.86,4.57.86,0,0-2.71-12.35-3.8-17.21s2.34-18.75,2.34-18.75l-12.86-3.15Z"/>
          <path class="cls-3" d="M368.16,390.3c-.32.24-4.59,2.73-6.22,6.58-1.63,3.84-2.88,21.2-2.88,21.2l1.75.34s2.01-12.81,2.67-13.69,2.82-1.93,7.14,3.34c4.32,5.27,2.86,9.87,7.28,11.96,4.42,2.09,17.08,2.56,17.17,1.47.09-1.09-8.52-6.79-8.52-6.79,0,0-3.28.54-5.89-2.43-2.61-2.97-12.49-21.98-12.49-21.98Z"/>
        </g>
        <path class="cls-3" d="M319.23,272.15c.75.6,82.49,122.43,82.49,122.43l35.46-19.62s-56.06-75.21-65.56-84.74c-9.49-9.52-37.34-38.6-38.33-38.3-.99.3-14.06,20.22-14.06,20.22Z"/>
        <g>
          <path class="cls-3" d="M407.57,304.79c-2.64-6.21-66.49-66.6-66.49-66.6l-9.86-26.9-37.77,6.15s-3.72,8.96-7.11,22.67c-1.81,7.32-.34,19.39,5.47,24.4,6.96,6,18.85,8.03,24.18,11.01,5.33,2.97,51.48,41.47,51.18,42.1-.3.63-5.13,26.27-6.28,32.74-1.15,6.47-6.24,30.16-6.24,30.16l43.49,11.09s12.06-80.61,9.42-86.81Z"/>
          <path class="cls-8" d="M407.57,304.79s.04.12.11.37c.03.13.09.28.12.47.02.19.05.42.08.67.12,1.02.13,2.55.08,4.55-.12,4-.58,9.87-1.36,17.4-1.57,15.06-4.36,36.75-8.26,63.37l-.03.22-.21-.05c-13.08-3.32-27.76-7.06-43.5-11.05l-.21-.05.04-.22c1.75-8.48,3.57-17.31,5.45-26.44.24-1.14.47-2.29.71-3.44.21-1.16.42-2.32.64-3.48.43-2.33.87-4.68,1.3-7.04.9-4.72,1.81-9.52,2.73-14.38.47-2.43.94-4.87,1.46-7.32l.1-.47.07-.26.04-.13s-.06.11-.02.16c.03.04,0,0,0,0-.16-.19-.4-.43-.62-.64l-1.38-1.27c-.95-.83-1.89-1.66-2.84-2.5-3.83-3.31-7.75-6.61-11.71-9.94-7.94-6.64-16.08-13.36-24.45-20.04-3.09-2.43-6.14-4.9-9.31-7.1-1.6-1.03-3.42-1.71-5.22-2.38-1.82-.63-3.64-1.27-5.45-1.9-3.62-1.28-7.22-2.64-10.51-4.58-1.64-.97-3.22-2.04-4.56-3.43-1.32-1.39-2.3-3.05-3.06-4.77-.76-1.72-1.31-3.53-1.68-5.35-.37-1.82-.62-3.66-.69-5.51-.07-1.84-.02-3.68.2-5.5.2-1.83.72-3.58,1.15-5.32,1.84-6.96,3.93-13.7,6.47-20.12l.05-.12.14-.02c13.26-2.15,25.87-4.2,37.78-6.13l.18-.03.06.17c3.48,9.51,6.76,18.47,9.84,26.9l-.05-.08c20.92,19.88,37.79,36.32,49.28,47.92,5.75,5.8,10.14,10.4,13.02,13.63,1.44,1.61,2.5,2.88,3.15,3.78.33.45.57.79.69,1.05.14.25.2.37.2.37-.03.02-.24-.52-.94-1.39-.67-.88-1.74-2.14-3.19-3.74-2.9-3.2-7.32-7.77-13.09-13.55-11.54-11.55-28.45-27.94-49.4-47.78l-.03-.03-.02-.04c-3.1-8.43-6.38-17.38-9.88-26.89l.25.14c-11.9,1.94-24.52,4-37.77,6.17l.19-.15c-2.52,6.38-4.61,13.12-6.44,20.06-.43,1.75-.95,3.47-1.14,5.26-.22,1.78-.27,3.6-.2,5.41.19,3.62.84,7.3,2.33,10.67.74,1.68,1.7,3.29,2.97,4.62,1.27,1.32,2.84,2.39,4.45,3.34,3.24,1.91,6.81,3.26,10.42,4.53,1.81.63,3.63,1.26,5.46,1.9,1.81.67,3.66,1.35,5.33,2.44,3.22,2.23,6.26,4.69,9.35,7.12,8.38,6.68,16.52,13.41,24.46,20.05,3.97,3.32,7.88,6.63,11.72,9.95.95.84,1.9,1.67,2.85,2.5l1.4,1.28c.23.23.45.42.69.71.02.03.02,0,.06.09.05.08.02.25.01.27l-.02.1-.05.2-.1.45c-.52,2.44-.99,4.89-1.46,7.31-.92,4.86-1.84,9.65-2.74,14.37-.44,2.36-.88,4.71-1.31,7.04-.21,1.16-.43,2.32-.64,3.48-.24,1.15-.48,2.3-.71,3.44-1.89,9.13-3.72,17.96-5.48,26.45l-.17-.27c15.73,4.02,30.41,7.77,43.48,11.12l-.24.16c3.95-26.61,6.8-48.29,8.43-63.34.81-7.52,1.31-13.39,1.46-17.38.07-1.99.08-3.52-.02-4.54-.02-.25-.04-.48-.06-.67-.03-.19-.08-.34-.11-.47-.06-.25-.08-.38-.08-.38Z"/>
        </g>
      </g>
      <g>
        <path class="cls-3" d="M323.04,112.23c.13-2.52,0-5.26-.5-8.01h0s0,0,0,0c-.71-3.99-2.92-7.55-5.47-10.69-2.15-2.65-5.23-4.21-8.57-4.87-3.34-.66-5.29-1.48-9.85-1.1-8.07.68-14.7,4.75-19.39,11.35-1.48,2.09-2.6,4.59-3.28,7.25-1.31,3.6-8.42,37.06-5.47,55.69,2.66,16.73-.64,25.26,6.86,25.26s38.41,6.6,44.28-2.3c4.66-7.06,2.49-53.62,1.39-72.57Z"/>
        <g>
          <path class="cls-7" d="M288.62,98.2l13.66-6.53,3.7.18c8.25-.53,14.56,8.18,15.07,14.86.56,7.42.96,16.5.15,22.05-1.62,11.16-10.95,12.72-10.95,12.72,0,0,.59,9.04.91,12.73l-19.36-2.95-6.62-49.04c-.07-2.03,1.43-3.78,3.45-4.02Z"/>
          <path class="cls-11" d="M310.26,141.46s-7.49.58-14.97-3.79c0,0,4.07,7.67,15.21,6.48l-.24-2.7Z"/>
        </g>
        <path class="cls-3" d="M316.73,116.3c.04.75-.57,1.41-1.36,1.46-.79.05-1.45-.51-1.49-1.27-.04-.75.57-1.41,1.36-1.46.79-.05,1.45.52,1.49,1.27Z"/>
        <path class="cls-3" d="M318.78,110.59c-.17.19-1.27-.6-2.8-.57-1.54,0-2.65.81-2.82.62-.08-.08.09-.42.58-.78.48-.36,1.3-.72,2.26-.73.96,0,1.77.34,2.24.69.48.36.64.69.56.78Z"/>
        <path class="cls-3" d="M309.75,123.27c0-.09.95-.26,2.49-.48.39-.05.76-.13.83-.4.09-.29-.08-.71-.28-1.16-.38-.95-.78-1.94-1.2-2.97-1.67-4.24-2.88-7.72-2.71-7.78.17-.07,1.66,3.31,3.33,7.55.4,1.04.79,2.04,1.15,2.99.15.44.42.95.22,1.54-.1.29-.39.51-.64.58-.25.08-.47.09-.67.1-1.56.1-2.52.12-2.53.04Z"/>
        <g>
          <path class="cls-11" d="M304.52,127.3c.04-.59.32-1.12.71-1.5.77-.76,1.97-.91,2.89-.36.92.55,1.51,1.76,1.42,2.93h0c-.45.71-1.17,1.22-2,1.35-.13.02-.26.03-.39.04-.64.03-1.3-.14-1.81-.58-.52-.43-.87-1.15-.82-1.88Z"/>
          <path class="cls-3" d="M305.24,124.39c.25-.02.27,1.65,1.72,2.82,1.44,1.17,3.22.96,3.23,1.19.02.1-.39.33-1.14.36-.74.03-1.81-.19-2.7-.9-.88-.72-1.27-1.68-1.33-2.36-.07-.7.11-1.11.22-1.1Z"/>
        </g>
        <path class="cls-3" d="M317.89,105.26c-.25.38-1.43.14-2.81.28-1.38.09-2.51.51-2.82.18-.14-.16,0-.53.48-.92.46-.38,1.27-.74,2.22-.82.95-.07,1.8.15,2.31.45.52.3.72.64.61.83Z"/>
        <path class="cls-3" d="M300.07,116.65c.01.76.66,1.37,1.45,1.37.79,0,1.42-.61,1.41-1.36-.01-.76-.66-1.37-1.45-1.37-.79,0-1.42.61-1.41,1.36Z"/>
        <path class="cls-3" d="M298.01,111.4c.19.18,1.23-.68,2.76-.75,1.53-.1,2.7.64,2.86.44.08-.09-.12-.41-.63-.75-.5-.33-1.34-.64-2.3-.58-.96.05-1.74.45-2.19.83-.45.39-.6.73-.51.81Z"/>
        <path class="cls-3" d="M298.6,106.43c.32.33,1.49-.09,2.91-.18,1.42-.13,2.64.1,2.9-.28.11-.18-.09-.52-.64-.83-.54-.3-1.42-.53-2.4-.45-.98.08-1.81.44-2.29.82-.49.38-.63.75-.49.91Z"/>
        <g>
          <path class="cls-7" d="M288.88,120.74c-.01-.83-1-2.77-1.82-2.89-2.19-.31-6.13-.09-6.1,5.47.05,7.6,8.4,6.27,8.41,6.05,0-.17-.45-5.77-.49-8.63Z"/>
          <path class="cls-11" d="M286.53,126.33s-.13.09-.35.2c-.22.1-.59.17-.99.03-.8-.29-1.49-1.56-1.53-2.93-.02-.69.12-1.35.36-1.9.23-.56.59-.95.99-1.02.4-.1.69.14.78.36.1.21.06.36.1.38.02.02.16-.13.1-.44-.03-.15-.12-.33-.3-.47-.18-.15-.45-.22-.73-.19-.59.04-1.11.59-1.37,1.19-.3.6-.47,1.34-.44,2.12.06,1.53.85,2.96,1.95,3.27.53.14.98-.03,1.21-.21.23-.19.27-.36.25-.37Z"/>
        </g>
        <path class="cls-3" d="M286.22,117.9l2.06,1.86c7.76-8.51,22.63-29.5,21.81-28.25,0,0-5.84-1.95-11.94-.48-6.1,1.47-17.6,5.35-16.92,12.62.67,7.27,5,14.25,5,14.25Z"/>
      </g>
      <g>
        <path class="cls-2" d="M337.97,223.74s13.01-6.97,13.64-11.02c1.29-8.21-5.96-14.27-10.15-19.81-3.31-4.37-7.7-8.82-7.7-8.82l-3.47,25.77,7.67,13.87Z"/>
        <path class="cls-7" d="M337.59,213.17s3.09-5.87,3.19-5.97,2.4-2.16,2.79-3.35c.4-1.19,1.28-3.31.54-3.56-.75-.25-1.45-.1-1.94.9-.49.99-.64,2.14-.64,2.14l-1.89.94s2.38-4.82,2.53-5.97c.15-1.14-.3-2.24-1.54-2.19-1.24.05-1.39,1.54-1.69,2.34-.3.8-1.94,3.88-1.94,3.88,0,0,2.14-5.52,2.14-6.22s.1-3.93-1.04-3.98c-1.14-.05-1.5.47-1.96,1.69-.46,1.22.08,2.27-.43,3.18-.51.91-2.71,4.23-2.71,4.23l.38,6.41,4.22,5.52Z"/>
      </g>
      <path class="cls-9" d="M312.29,147.54l.03,7.1s16.57,17.53,19.65,23.05c6.4,11.45-1.9,39.19-1.9,39.19l-38.18,7.48s-8.74-37.21-10.38-46.5c-1.48-8.41-1-25.38,8.67-29.22l-.69-10.02,22.13,7.98c.4.14.66.52.66.94Z"/>
      <g>
        <path class="cls-2" d="M289.3,145.92s-6.94,5.54-8.79,12.2c-1.84,6.65,1.56,24.77,3.54,33.05,1.52,6.35,5.04,26.48,5.04,26.48-1.01,6.59-15.18,53.99-12.49,55.61,2.7,1.62,47.91-5.75,47.91-5.75,0,0,5.33-44.01,2-58.26s-5.48-33.94-14.65-48.49c-8.73-13.84-22.32-18.78-22.32-18.78l-.24,3.95Z"/>
        <g>
          <path class="cls-7" d="M304.82,204.51s-2.41.75-3.12,1.41c-.7.65-2.56,5.73-1.66,6.53.9.8,2.27.75,2.27.75,0,0-3.86,1.91-2.51,3.22,1.35,1.31,5.02.5,5.02.5,0,0,1.21,2.16,3.92,1.56,0,0,1.04,2.36,3.58,1.66,2.55-.7,3.45-1.66,3.45-1.66l-.45-4.72-10.5-9.25Z"/>
          <path class="cls-11" d="M304.91,216.2s-.6.33-1.48-.14c-.42-.22-.87-.66-1.1-1.26-.24-.6-.29-1.33-.11-2.04.38-1.43,1.39-2.34,2.09-2.89.72-.55,1.2-.82,1.24-.77.05.06-.36.44-1,1.05-.62.61-1.5,1.5-1.82,2.74-.33,1.24.19,2.43.9,2.85.69.47,1.28.36,1.29.45Z"/>
          <path class="cls-11" d="M305.22,217.61c-.01.07-.5-.14-.64-.84-.15-.68.08-1.62.57-2.47.5-.87,1.2-1.47,1.76-1.79.56-.33.96-.4.98-.34.08.13-1.38.79-2.3,2.39-.46.79-.7,1.59-.66,2.16.02.57.33.83.28.89Z"/>
          <path class="cls-11" d="M309.17,218.44c-.06.03-.21-.12-.23-.44-.03-.31.1-.75.43-1.09.68-.65,1.41-.68,1.44-.57.07.15-.57.43-1.07.93-.51.51-.45,1.12-.57,1.17Z"/>
        </g>
        <path class="cls-2" d="M292.16,149.99c-12.26.02-12.69,13.54-7.74,24.49,4.95,10.95,31.38,53.08,39.36,54.95,7.14,1.68,10.68,1.71,13.53-1.68,2.85-3.39,1.32-13.37,0-15.07-1.32-1.7-19.66-33.52-23.8-39.56-3.92-5.71-13.7-23.15-21.33-23.14Z"/>
        <g class="cls-6">
          <path d="M291.97,237.94l21.71-2.98-2.44,8.96c-.37.88-1.21,1.48-2.16,1.53-5.07.27-20.8,1.04-20.79.22.03-2.85,3.68-7.72,3.68-7.72Z"/>
        </g>
        <g>
          <path class="cls-2" d="M291.53,235.84l22.16-.89-2.88,6.87c-.37.88-1.21,1.48-2.16,1.53-5.07.27-20.8,1.04-20.79.22.03-2.85,3.68-7.72,3.68-7.72Z"/>
          <path class="cls-3" d="M291.53,235.84s-.1.19-.32.54c-.22.35-.55.86-.95,1.53-.4.67-.87,1.5-1.33,2.51-.23.5-.46,1.05-.63,1.64-.1.3-.16.61-.21.92-.02.16-.03.32-.04.48v.06s0,.05-.01,0c-.03-.05-.02-.03,0-.02.05.02.13.04.21.06,1.34.2,2.9.15,4.53.15,1.64-.02,3.4-.07,5.25-.14,1.85-.08,3.79-.16,5.8-.25,1.01-.05,2.03-.1,3.07-.15.52-.03,1.04-.05,1.57-.08.5,0,.96-.15,1.35-.44.28-.2.5-.47.66-.78.15-.31.29-.69.44-1.03.29-.7.58-1.38.87-2.06.57-1.36,1.13-2.67,1.66-3.94l.24.35c-6.36.21-11.86.4-15.85.53-1.92.05-3.48.09-4.63.11-.5,0-.91,0-1.25.01-.29,0-.44,0-.45-.02,0-.01.13-.03.41-.06.32-.02.72-.05,1.21-.09,1.13-.06,2.68-.15,4.59-.26,4.01-.19,9.54-.44,15.94-.74l.39-.02-.15.36c-.53,1.27-1.08,2.59-1.65,3.94-.28.68-.57,1.37-.86,2.06-.15.35-.28.68-.46,1.06-.19.37-.47.71-.82.96-.47.36-1.08.53-1.63.54-.53.03-1.05.05-1.57.08-1.04.05-2.07.1-3.07.14-2.01.07-3.96.15-5.81.22-1.85.05-3.61.09-5.27.09-1.66-.02-3.18.02-4.62-.22-.09-.02-.18-.04-.29-.09-.05-.03-.12-.05-.19-.18-.03-.1-.02-.11-.02-.13v-.07c.02-.18.03-.35.06-.52.07-.34.14-.66.24-.97.19-.61.44-1.16.68-1.67.49-1.01,1-1.83,1.42-2.49.43-.66.79-1.15,1.04-1.48.25-.33.4-.5.41-.48Z"/>
        </g>
        <path class="cls-3" d="M303.96,160.28s.1.1.29.3c.18.2.45.51.79.92.69.82,1.67,2.05,2.9,3.67,2.42,3.25,5.99,7.95,9.7,14.2,3.79,6.2,8.18,13.64,13.07,21.89,1.23,2.06,2.48,4.18,3.76,6.34.65,1.07,1.3,2.16,1.96,3.26.34.54.67,1.1,1.02,1.61.42.58.61,1.23.82,1.86.7,2.56.97,5.24.86,7.97-.07,1.36-.24,2.75-.76,4.07-.27.65-.63,1.3-1.12,1.82-.46.54-1.01,1-1.6,1.4-.6.4-1.27.68-1.95.89-.69.17-1.39.3-2.09.31-1.4.07-2.77-.1-4.11-.32-1.34-.23-2.65-.5-3.95-.84-1.35-.46-2.41-1.31-3.4-2.17-1.98-1.74-3.68-3.68-5.31-5.6-1.62-1.93-3.13-3.88-4.57-5.8-5.75-7.7-10.46-14.96-14.33-21.11-3.85-6.16-6.8-11.24-8.73-14.81-.96-1.79-1.68-3.19-2.14-4.16-.24-.48-.39-.86-.5-1.11-.11-.25-.16-.38-.15-.39,0,0,.08.12.2.36.13.27.32.62.55,1.08.48.95,1.23,2.34,2.22,4.11,1.99,3.54,4.98,8.59,8.87,14.72,3.9,6.11,8.64,13.35,14.4,21.01,1.45,1.91,2.96,3.84,4.57,5.76,1.62,1.91,3.32,3.84,5.26,5.54.96.85,2.03,1.67,3.2,2.06,1.26.33,2.58.6,3.9.83,1.32.22,2.66.37,4,.31.67-.02,1.33-.14,1.97-.3.63-.2,1.25-.45,1.81-.82,1.1-.75,2.07-1.75,2.53-2.97.48-1.23.65-2.58.72-3.91.11-2.66-.16-5.32-.83-7.8-.19-.6-.39-1.22-.73-1.7-.38-.56-.71-1.1-1.05-1.65-.66-1.1-1.31-2.19-1.96-3.27-1.28-2.16-2.53-4.28-3.75-6.35-4.87-8.27-9.23-15.73-12.97-21.95-3.66-6.27-7.18-10.98-9.55-14.27-1.2-1.64-2.16-2.89-2.82-3.73-.32-.4-.57-.72-.75-.95-.17-.22-.25-.33-.25-.33Z"/>
        <path class="cls-3" d="M295.35,151.02c-.01.12-1.32-.23-3.39.01-1.03.13-2.25.42-3.47,1.05-1.22.61-2.45,1.54-3.5,2.73-2.15,2.37-3.03,5.25-3.27,7.31-.25,2.08.03,3.39-.08,3.4-.03,0-.13-.31-.22-.9-.09-.59-.16-1.46-.07-2.53.15-2.12,1.01-5.15,3.25-7.62,1.09-1.24,2.38-2.19,3.67-2.81,1.29-.64,2.58-.9,3.65-.98,1.08-.1,1.95.02,2.53.11.59.12.9.21.9.24Z"/>
        <path class="cls-3" d="M320.59,182.07s-.32-.68-.88-1.9c-.56-1.22-1.41-2.98-2.53-5.1-2.26-4.23-5.61-10.01-10.25-15.68-.99-1.22-2.02-2.37-3.05-3.45-.26-.27-.52-.53-.78-.79l-.38-.39-.1-.1s-.05-.02-.14-.18c-.1-.08.02-.4.08-.4.08-.08.13-.1.18-.12.41-.17.76-.2,1.12-.25.18-.02.36-.04.54-.05h.27s.14,0,.14,0c.04,0,.11,0,.22.04l-.17.46c-1.25-.38-2.43-.71-3.54-1.3-.98-.75-1.87-1.37-2.78-1.95-1.8-1.14-3.44-2.05-4.82-2.79-1.38-.73-2.49-1.27-3.26-1.63-.77-.36-1.19-.54-1.18-.57,0-.01.12.02.33.09.21.07.52.18.91.34.79.32,1.93.82,3.33,1.51,1.4.7,3.07,1.58,4.9,2.7.9.55,1.89,1.22,2.79,1.91,1,.51,2.23.86,3.44,1.22l-.09.28c-.13.27-.05.17-.07.19h-.05s-.12,0-.12,0h-.25s-.51.06-.51.06c-.33.04-.71.1-.97.21-.03.01-.06.03-.04.02-.02-.03-.06-.05-.09-.07-.01-.01,0-.02-.02-.02,0,0-.02,0-.04,0,.03,0,.05,0,.07-.02.07-.11.1-.05.13-.02l.1.1.39.39c.26.26.52.53.79.8,1.04,1.09,2.08,2.24,3.08,3.48,4.68,5.72,8,11.55,10.18,15.84,1.09,2.15,1.88,3.94,2.39,5.19.25.63.44,1.12.55,1.45.11.34.17.52.15.52Z"/>
      </g>
    </g>
  </g>
</svg>