<?xml version="1.0" encoding="UTF-8"?>
<svg xmlns="http://www.w3.org/2000/svg" viewBox="0 0 489.11 468.95">
  <defs>
    <style>
      .cls-1 {
        fill: #ba68c8;
      }

      .cls-2 {
        fill: #ebebeb;
      }

      .cls-3 {
        fill: #37474f;
      }

      .cls-4, .cls-5, .cls-6, .cls-7, .cls-8 {
        fill: #fff;
      }

      .cls-4, .cls-9 {
        opacity: .2;
      }

      .cls-5, .cls-10 {
        opacity: .3;
      }

      .cls-6, .cls-11 {
        opacity: .4;
      }

      .cls-7 {
        opacity: .7;
      }

      .cls-12 {
        fill: #263238;
      }

      .cls-13 {
        fill: #263238;
      }

      .cls-14 {
        isolation: isolate;
      }

      .cls-15 {
        fill: #f28f8f;
      }

      .cls-16 {
        fill: #37474f;
      }

      .cls-17 {
        opacity: .39;
      }

      .cls-18 {
        opacity: .5;
      }

      .cls-19 {
        opacity: .1;
      }

      .cls-20 {
        opacity: .15;
      }

      .cls-21 {
        opacity: .05;
      }

      .cls-22 {
        fill: #f5f5f5;
      }

      .cls-23 {
        fill: #f0f0f0;
      }

      .cls-24 {
        fill: #ffa8a7;
      }

      .cls-25 {
        fill: #455a64;
      }

      .cls-26 {
        fill: #787878;
      }

      .cls-27 {
        fill: #e0e0e0;
      }
    </style>
  </defs>
  <g id="Floor">
    <path class="cls-22" d="M416.92,227.13c-95.81-55.32-250.65-55.32-345.85,0-95.2,55.32-94.69,145.01,1.12,200.33,95.82,55.32,250.66,55.32,345.86,0,95.19-55.32,94.69-145.01-1.13-200.33Z"/>
  </g>
  <g id="Shadows">
    <path class="cls-27" d="M51.77,363.73c-6.72-3.88-17.59-3.88-24.27,0-6.68,3.88-6.65,10.18.08,14.06,6.73,3.88,17.59,3.88,24.27,0,6.68-3.88,6.65-10.18-.08-14.06Z"/>
    <path class="cls-27" d="M41.66,322.56l3.4,1.96c1.5.87,3.35.87,4.85,0l204.38-118c1.29-.75,1.3-2.61,0-3.36l-3.47-2.03c-1.51-.88-3.37-.88-4.87,0l-204.29,118.07c-1.29.75-1.29,2.62,0,3.36Z"/>
    <path class="cls-27" d="M63.74,344.51l1.18.68c.52.3,1.16.3,1.68,0l70.91-40.94c.45-.26.45-.9,0-1.17l-1.21-.7c-.52-.3-1.17-.31-1.69,0l-70.88,40.96c-.45.26-.45.91,0,1.17Z"/>
    <path class="cls-27" d="M424.51,339.87l-54.98-31.84c-3.07-1.78-6.86-1.78-9.94,0l-50.12,28.95-51.5-29.62c-2.05-1.18-4.57-1.18-6.61,0l-89.68,51.8c-.74.42-.73,1.49,0,1.91l150.9,86.87c2.05,1.18,4.57,1.18,6.61,0l89.68-51.8c.74-.42.73-1.49,0-1.91l-35.98-20.72,51.61-29.81c1.47-.85,1.47-2.97,0-3.82Z"/>
    <path class="cls-27" d="M461.55,366.83c-7.09-4.09-18.54-4.09-25.58,0-7.04,4.09-7,10.73.08,14.82,7.09,4.09,18.54,4.09,25.58,0,7.04-4.09,7-10.73-.08-14.82Z"/>
  </g>
  <g id="Plants">
    <g>
      <g>
        <path class="cls-8" d="M55.96,341.39l-16.28.47-16.28-.47c-.7,11,1.45,22.2,4.4,27.67h.01c.53,1.2,1.6,2.34,3.22,3.28,4.8,2.77,12.57,2.77,17.34,0,1.65-.96,2.72-2.13,3.22-3.36,2.94-5.5,5.06-16.65,4.36-27.59Z"/>
        <path class="cls-2" d="M51.15,334.72c6.38,3.68,6.41,9.65.08,13.34-6.34,3.68-16.65,3.68-23.03,0-6.38-3.68-6.41-9.65-.07-13.34,6.34-3.68,16.65-3.68,23.02,0Z"/>
        <path class="cls-27" d="M48.63,336.19c4.98,2.87,5,7.53.06,10.41-4.94,2.87-12.99,2.87-17.96,0-4.98-2.87-5-7.53-.06-10.41,4.94-2.87,12.99-2.87,17.96,0Z"/>
        <g class="cls-20">
          <path d="M48.63,336.19c4.98,2.87,5,7.53.06,10.41-4.94,2.87-12.99,2.87-17.96,0-4.98-2.87-5-7.53-.06-10.41,4.94-2.87,12.99-2.87,17.96,0Z"/>
        </g>
      </g>
      <g>
        <path class="cls-1" d="M31.37,308.07c-2.65-3.29-5.72-6.24-8.15-9.7-1.66-2.36-3.04-5.25-2.34-8.04.65-2.59,3.07-4.53,5.7-5.02,2.63-.49,5.38.29,7.65,1.71,2.27,1.41,4.12,3.41,5.78,5.5,9.11,11.43,13.55,26.48,12.1,41.03-.17,1.67-.45,3.42-1.51,4.71-1.14,1.39-3.14,2-4.87,1.49-4.44-1.32-3.85-7.31-4.57-10.83-.99-4.83-2.72-9.51-5.09-13.83-1.36-2.47-2.93-4.82-4.69-7.02Z"/>
        <path class="cls-4" d="M31.37,308.07c-2.65-3.29-5.72-6.24-8.15-9.7-1.66-2.36-3.04-5.25-2.34-8.04.65-2.59,3.07-4.53,5.7-5.02,2.63-.49,5.38.29,7.65,1.71,2.27,1.41,4.12,3.41,5.78,5.5,9.11,11.43,13.55,26.48,12.1,41.03-.17,1.67-.45,3.42-1.51,4.71-1.14,1.39-3.14,2-4.87,1.49-4.44-1.32-3.85-7.31-4.57-10.83-.99-4.83-2.72-9.51-5.09-13.83-1.36-2.47-2.93-4.82-4.69-7.02Z"/>
        <path class="cls-23" d="M46.01,335.29c-.17-.03-.3-.18-.31-.36-.31-7.12-2.62-31.42-19.37-45.21-.17-.14-.19-.38-.05-.55.14-.17.38-.19.55-.05,16.99,13.99,19.34,38.57,19.65,45.77,0,.21-.16.4-.37.41-.03,0-.06,0-.09,0Z"/>
        <g>
          <path class="cls-1" d="M48.45,336.06c-.51,2.79-2.91,6.25-5.44,7.54-2.51,1.28-5.42,1.62-8.23,1.38-2.86-.25-5.63-1.07-8.35-1.98-1.34-.45-2.84-1.06-2.98-2.73-.08-.88.32-1.73.95-2.34.26-.26.56-.51.87-.75.63-.48.34-1.49-.46-1.54-.8-.05-1.59-.14-2.38-.29-1.82-.35-3.61-1.04-5-2.26-1.04-.92-1.84-2.11-2.31-3.42-.4-1.12-.52-2.52.33-3.36.49-.48,1.18-.66,1.85-.8.6-.13,1.19-.24,1.79-.33.8-.12.93-1.21.18-1.52l-2.53-1.05c-.7-.29-1.43-.61-1.92-1.19-.77-.93-.72-2.29-.49-3.48.31-1.58.85-3.11,1.23-4.67.37-1.57.57-3.22.17-4.78,4.72-.48,9.56-.25,14.15.94,1.37.36,2.76.81,3.86,1.69,1.58,1.26,1.98,3.15,1.82,5.2-.03.39.5.54.69.19l1.61-2.98c.49-.9,1.59-1.23,2.51-.8,1.39.65,2.64,1.7,3.69,2.9,1.14,1.3,1.72,3,1.58,4.72-.19,2.32-.59,4.68-1.18,6.94-.15.59.51,1.04,1,.68l.08-.06c.44-.32.98-.51,1.52-.44,1.43.18,1.79,1.62,1.89,2.85.14,1.78-.18,3.88-.51,5.74Z"/>
          <path class="cls-9" d="M48.45,336.06c-.51,2.79-2.91,6.25-5.44,7.54-2.51,1.28-5.42,1.62-8.23,1.38-2.86-.25-5.63-1.07-8.35-1.98-1.34-.45-2.84-1.06-2.98-2.73-.08-.88.32-1.73.95-2.34.26-.26.56-.51.87-.75.63-.48.34-1.49-.46-1.54-.8-.05-1.59-.14-2.38-.29-1.82-.35-3.61-1.04-5-2.26-1.04-.92-1.84-2.11-2.31-3.42-.4-1.12-.52-2.52.33-3.36.49-.48,1.18-.66,1.85-.8.6-.13,1.19-.24,1.79-.33.8-.12.93-1.21.18-1.52l-2.53-1.05c-.7-.29-1.43-.61-1.92-1.19-.77-.93-.72-2.29-.49-3.48.31-1.58.85-3.11,1.23-4.67.37-1.57.57-3.22.17-4.78,4.72-.48,9.56-.25,14.15.94,1.37.36,2.76.81,3.86,1.69,1.58,1.26,1.98,3.15,1.82,5.2-.03.39.5.54.69.19l1.61-2.98c.49-.9,1.59-1.23,2.51-.8,1.39.65,2.64,1.7,3.69,2.9,1.14,1.3,1.72,3,1.58,4.72-.19,2.32-.59,4.68-1.18,6.94-.15.59.51,1.04,1,.68l.08-.06c.44-.32.98-.51,1.52-.44,1.43.18,1.79,1.62,1.89,2.85.14,1.78-.18,3.88-.51,5.74Z"/>
          <path class="cls-4" d="M48.45,336.06c-.51,2.79-2.91,6.25-5.44,7.54-2.51,1.28-5.42,1.62-8.23,1.38-2.86-.25-5.63-1.07-8.35-1.98-1.34-.45-2.84-1.06-2.98-2.73-.08-.88.32-1.73.95-2.34.26-.26.56-.51.87-.75.63-.48.34-1.49-.46-1.54-.8-.05-1.59-.14-2.38-.29-1.82-.35-3.61-1.04-5-2.26-1.04-.92-1.84-2.11-2.31-3.42-.4-1.12-.52-2.52.33-3.36.49-.48,1.18-.66,1.85-.8.6-.13,1.19-.24,1.79-.33.8-.12.93-1.21.18-1.52l-2.53-1.05c-.7-.29-1.43-.61-1.92-1.19-.77-.93-.72-2.29-.49-3.48.31-1.58.85-3.11,1.23-4.67.37-1.57.57-3.22.17-4.78,4.72-.48,9.56-.25,14.15.94,1.37.36,2.76.81,3.86,1.69,1.58,1.26,1.98,3.15,1.82,5.2-.03.39.5.54.69.19l1.61-2.98c.49-.9,1.59-1.23,2.51-.8,1.39.65,2.64,1.7,3.69,2.9,1.14,1.3,1.72,3,1.58,4.72-.19,2.32-.59,4.68-1.18,6.94-.15.59.51,1.04,1,.68l.08-.06c.44-.32.98-.51,1.52-.44,1.43.18,1.79,1.62,1.89,2.85.14,1.78-.18,3.88-.51,5.74Z"/>
          <path class="cls-23" d="M40.95,343.21c-.02-.1-1-4.83-3.81-11.03,0-.11-.05-.22-.13-.29-.09-.19-.17-.38-.27-.58.81-7.41,3.74-12.58,3.77-12.63.11-.19.04-.42-.14-.53-.19-.1-.42-.04-.53.14-.03.05-2.73,4.8-3.72,11.74-3.22-6.46-8.36-14.02-16.29-19.54-.18-.12-.42-.08-.54.1-.12.18-.08.42.1.54,8.18,5.69,13.35,13.59,16.48,20.14-6.39-3.11-13.18-1.88-13.49-1.83-.21.04-.35.24-.31.45.03.16.16.28.31.31.05,0,.1,0,.15,0,.07-.01,7.48-1.36,13.88,2.22,2.79,6.13,3.76,10.83,3.78,10.93.03.16.16.28.31.31.05,0,.1.01.15,0,.21-.04.35-.25.31-.46Z"/>
        </g>
      </g>
    </g>
    <g>
      <g>
        <path class="cls-8" d="M465.96,343.28l-17.16.5-17.16-.5c-.74,11.59,1.52,23.4,4.64,29.17h.01c.56,1.26,1.68,2.46,3.4,3.45,5.06,2.92,13.25,2.92,18.28,0,1.74-1.01,2.87-2.25,3.39-3.55,3.09-5.8,5.33-17.54,4.6-29.07Z"/>
        <path class="cls-2" d="M460.89,336.25c6.72,3.88,6.76,10.17.08,14.06-6.68,3.88-17.54,3.88-24.27,0-6.72-3.88-6.76-10.17-.08-14.06,6.68-3.88,17.54-3.88,24.27,0Z"/>
        <path class="cls-27" d="M458.24,337.8c5.25,3.03,5.27,7.94.06,10.97-5.21,3.03-13.69,3.03-18.93,0-5.25-3.03-5.27-7.94-.06-10.97,5.21-3.03,13.69-3.03,18.93,0Z"/>
        <g class="cls-20">
          <path d="M458.24,337.8c5.25,3.03,5.27,7.94.06,10.97-5.21,3.03-13.69,3.03-18.93,0-5.25-3.03-5.27-7.94-.06-10.97,5.21-3.03,13.69-3.03,18.93,0Z"/>
        </g>
      </g>
      <g>
        <path class="cls-1" d="M477.01,270.06c-38.67,12.66-39.02,38.53-30.3,56.95,2.2,3.73,8.85,5.73,14.64-17.18l-10.16,1.3,11.84-6,3.07-9.19-9.87.73,12.53-5.27c4.62-13.96,8.25-21.35,8.25-21.35Z"/>
        <path class="cls-9" d="M477.01,270.06c-38.67,12.66-39.02,38.53-30.3,56.95,2.2,3.73,8.85,5.73,14.64-17.18l-10.16,1.3,11.84-6,3.07-9.19-9.87.73,12.53-5.27c4.62-13.96,8.25-21.35,8.25-21.35Z"/>
        <path class="cls-4" d="M477.01,270.06c-38.67,12.66-39.02,38.53-30.3,56.95,2.2,3.73,8.85,5.73,14.64-17.18l-10.16,1.3,11.84-6,3.07-9.19-9.87.73,12.53-5.27c4.62-13.96,8.25-21.35,8.25-21.35Z"/>
        <path class="cls-8" d="M466.08,276.53c-20.39,15.48-22.23,33.22-16.47,51.75-2.04-16.31-4.24-32.8,16.47-51.75Z"/>
      </g>
      <g>
        <path class="cls-1" d="M411.52,296.34c38.12,5.37,42.74,29.4,37.68,48.01-1.43,3.84-7.29,6.81-16.49-13.57l9.68-.47-12.02-3.62-4.39-8.05,9.31-.96-12.54-2.83c-6.62-12.23-11.23-18.51-11.23-18.51Z"/>
        <path class="cls-4" d="M411.52,296.34c38.12,5.37,42.74,29.4,37.68,48.01-1.43,3.84-7.29,6.81-16.49-13.57l9.68-.47-12.02-3.62-4.39-8.05,9.31-.96-12.54-2.83c-6.62-12.23-11.23-18.51-11.23-18.51Z"/>
        <path class="cls-19" d="M411.52,296.34c38.12,5.37,42.74,29.4,37.68,48.01-1.43,3.84-7.29,6.81-16.49-13.57l9.68-.47-12.02-3.62-4.39-8.05,9.31-.96-12.54-2.83c-6.62-12.23-11.23-18.51-11.23-18.51Z"/>
        <path class="cls-8" d="M422.78,300.55c21.56,11.03,26.23,27.25,23.94,45.45-.81-15.53-1.5-31.26-23.94-45.45Z"/>
      </g>
      <g>
        <path class="cls-1" d="M488.17,305.35c-34.96.57-41.81,21.72-39.34,39.05.86,3.62,5.81,6.95,16.38-10.38l-8.67-1.51,11.24-1.92,4.86-6.76-8.29-1.9,11.62-1.14c7.33-10.29,12.19-15.43,12.19-15.43Z"/>
        <path class="cls-8" d="M477.55,307.88c-20.67,7.52-26.69,21.62-26.66,38.29,2.47-13.91,4.85-28,26.66-38.29Z"/>
        <path class="cls-4" d="M488.17,305.35c-34.96.57-41.81,21.72-39.34,39.05.86,3.62,5.81,6.95,16.38-10.38l-8.67-1.51,11.24-1.92,4.86-6.76-8.29-1.9,11.62-1.14c7.33-10.29,12.19-15.43,12.19-15.43Z"/>
      </g>
    </g>
  </g>
  <g id="Windows">
    <g>
      <g>
        <g>
          <g>
            <g>
              <path class="cls-1" d="M45.86,286.43l-.35-156.78c-.01-4.45,3.12-9.88,6.99-12.12L247.39,5.3c1.93-1.11,3.67-1.22,4.94-.51l-7.34-4.25h0c-1.28-.81-3.09-.74-5.1.42L45.01,113.18c-3.88,2.24-7.01,7.67-6.99,12.12l.35,156.78c0,2.1.72,3.6,1.87,4.37h0s0,0,0,0c.13.08.26.16.39.23l7.24,4.21c-1.24-.74-2.01-2.29-2.01-4.47Z"/>
              <path class="cls-6" d="M244.99.54h0c-1.28-.81-3.09-.74-5.1.42L45.01,113.18c-2.16,1.24-4.08,3.47-5.36,5.97l7.5,4.33c1.28-2.49,3.2-4.72,5.35-5.96L247.39,5.3c1.93-1.11,3.67-1.22,4.94-.51l-7.34-4.25Z"/>
            </g>
            <path class="cls-5" d="M38.02,125.3l.35,156.78c0,2.1.72,3.6,1.87,4.37h0s0,0,0,0c.13.08.26.16.39.23l7.24,4.21c-1.24-.74-2.01-2.29-2.01-4.47l-.35-156.78c0-1.98.61-4.15,1.64-6.15l-7.5-4.33c-1.02,2-1.64,4.17-1.64,6.14Z"/>
          </g>
          <path class="cls-1" d="M45.53,138.73l.33,147.69c0,2.19.77,3.73,2.01,4.47.04.02.07.04.11.06.02,0,.04.02.05.02,1.26.67,2.98.54,4.87-.55l194.88-112.23c3.87-2.24,7.01-7.67,6.99-12.12l-.33-147.94L45.53,138.73Z"/>
          <path class="cls-11" d="M45.53,138.73l.33,147.69c0,2.19.77,3.73,2.01,4.47.04.02.07.04.11.06.02,0,.04.02.05.02,1.26.67,2.98.54,4.87-.55l194.88-112.23c3.87-2.24,7.01-7.67,6.99-12.12l-.33-147.94L45.53,138.73Z"/>
          <path class="cls-1" d="M254.43,9.31c0-2.19-.78-3.73-2.01-4.47-.01,0-.02-.02-.03-.02-.02,0-.03-.02-.05-.03-1.27-.71-3.02-.6-4.94.51L52.5,117.53c-3.88,2.24-7.01,7.67-6.99,12.12l.02,9.09L254.45,18.16l-.02-8.84Z"/>
          <g class="cls-18">
            <path class="cls-8" d="M54.79,123.88c1.06-.61,1.92-.12,1.92,1.09,0,1.21-.85,2.69-1.91,3.3-1.06.61-1.92.12-1.92-1.09,0-1.21.85-2.69,1.91-3.3Z"/>
            <path class="cls-8" d="M60.02,120.87c1.06-.61,1.92-.12,1.92,1.09s-.85,2.69-1.91,3.3c-1.06.61-1.92.12-1.92-1.09,0-1.21.85-2.69,1.91-3.3Z"/>
            <path class="cls-8" d="M65.24,117.85c1.06-.61,1.92-.12,1.92,1.09,0,1.21-.85,2.69-1.91,3.3-1.06.61-1.92.12-1.92-1.09,0-1.21.85-2.69,1.91-3.3Z"/>
          </g>
          <g class="cls-17">
            <path class="cls-8" d="M54.79,123.88c1.06-.61,1.92-.12,1.92,1.09,0,1.21-.85,2.69-1.91,3.3-1.06.61-1.92.12-1.92-1.09,0-1.21.85-2.69,1.91-3.3Z"/>
            <path class="cls-8" d="M60.02,120.87c1.06-.61,1.92-.12,1.92,1.09s-.85,2.69-1.91,3.3c-1.06.61-1.92.12-1.92-1.09,0-1.21.85-2.69,1.91-3.3Z"/>
            <path class="cls-8" d="M65.24,117.85c1.06-.61,1.92-.12,1.92,1.09,0,1.21-.85,2.69-1.91,3.3-1.06.61-1.92.12-1.92-1.09,0-1.21.85-2.69,1.91-3.3Z"/>
          </g>
        </g>
        <g>
          <polygon class="cls-8" points="193.94 152.47 221.34 136.65 221.33 133.18 193.93 149 193.94 152.47"/>
          <polygon class="cls-8" points="232.93 126.48 225.18 130.96 225.19 134.43 232.94 129.95 232.93 126.48"/>
          <polygon class="cls-8" points="181.54 168.23 245.02 131.58 245.01 128.11 181.53 164.76 181.54 168.23"/>
          <polygon class="cls-8" points="175.68 171.61 175.67 168.14 167.92 172.61 167.93 176.08 175.68 171.61"/>
          <polygon class="cls-8" points="189.88 151.34 152.49 172.93 152.5 176.4 189.89 154.81 189.88 151.34"/>
          <polygon class="cls-8" points="156.32 153.52 148.56 158 148.57 161.47 156.33 156.99 156.32 153.52"/>
          <polygon class="cls-8" points="147.21 179.45 147.2 175.98 122.71 190.12 122.72 193.59 147.21 179.45"/>
          <polygon class="cls-8" points="111.39 213.85 111.4 217.32 135.01 203.68 135 200.21 111.39 213.85"/>
          <polygon class="cls-8" points="162.1 179.45 162.09 175.98 122.74 198.7 122.75 202.17 162.1 179.45"/>
          <g>
            <polygon class="cls-1" points="202.66 138.84 210.42 134.36 210.41 130.89 202.65 135.37 202.66 138.84"/>
            <polygon class="cls-1" points="174.14 151.83 174.15 155.29 196.65 142.31 196.64 138.84 174.14 151.83"/>
            <polygon class="cls-1" points="141.23 174.31 166.8 159.54 166.79 156.07 141.22 170.84 141.23 174.31"/>
            <polygon class="cls-1" points="133.81 178.59 133.8 175.12 111.31 188.1 111.32 191.57 133.81 178.59"/>
          </g>
          <polygon class="cls-8" points="101.61 188.58 142.93 164.73 142.92 161.26 101.6 185.11 101.61 188.58"/>
          <polygon class="cls-8" points="166.7 125.21 166.69 121.74 100.73 159.82 100.74 163.29 166.7 125.21"/>
          <polygon class="cls-8" points="124.11 141.2 124.1 137.73 100.7 151.23 100.71 154.71 124.11 141.2"/>
          <polygon class="cls-8" points="130.84 125.24 100.68 142.65 100.69 146.13 130.85 128.71 130.84 125.24"/>
          <polygon class="cls-8" points="132.12 136.58 195.6 99.93 195.59 96.45 132.11 133.1 132.12 136.58"/>
          <polygon class="cls-8" points="154.7 111.46 138.1 121.05 138.11 124.52 154.71 114.94 154.7 111.46"/>
          <g>
            <polygon class="cls-1" points="116.29 107.85 76.94 130.57 76.95 134.04 116.3 111.32 116.29 107.85"/>
            <polygon class="cls-1" points="100.86 125.36 76.97 139.15 76.98 142.62 100.86 128.83 100.86 125.36"/>
            <polygon class="cls-1" points="111.26 122.82 185.54 79.94 185.53 76.47 111.25 119.36 111.26 122.82"/>
            <polygon class="cls-1" points="216.42 62.11 216.41 58.64 192.87 72.23 192.88 75.7 216.42 62.11"/>
            <polygon class="cls-1" points="235.41 51.15 235.4 47.68 223.63 54.47 223.64 57.94 235.41 51.15"/>
          </g>
          <polygon class="cls-8" points="112.38 127.3 88.93 140.84 88.94 144.31 112.39 130.77 112.38 127.3"/>
          <polygon class="cls-8" points="212.12 86.91 201.67 92.94 201.68 96.42 212.13 90.39 212.12 86.91"/>
          <polygon class="cls-8" points="244.85 71.5 244.84 68.02 217.43 83.84 217.44 87.32 244.85 71.5"/>
          <g>
            <polygon class="cls-1" points="187.07 130.65 187.06 127.17 123.15 164.07 123.16 167.54 187.07 130.65"/>
            <polygon class="cls-1" points="115.86 168.28 89.06 183.75 89.07 187.23 115.87 171.75 115.86 168.28"/>
            <polygon class="cls-1" points="102.4 167.45 89.03 175.17 89.04 178.64 102.41 170.92 102.4 167.45"/>
          </g>
          <g>
            <polygon class="cls-1" points="200.83 182.88 208.58 178.41 208.57 174.93 200.82 179.41 200.83 182.88"/>
            <polygon class="cls-1" points="195.62 185.89 195.61 182.42 170.74 196.77 170.75 200.25 195.62 185.89"/>
            <polygon class="cls-1" points="245.1 162.44 136.04 225.41 136.05 228.88 245.11 165.92 245.1 162.44"/>
            <polygon class="cls-1" points="165.56 199.77 136.01 216.82 136.02 220.3 165.57 203.24 165.56 199.77"/>
            <polygon class="cls-1" points="111.46 239.6 111.47 243.07 130.53 232.07 130.52 228.6 111.46 239.6"/>
            <polygon class="cls-1" points="130.49 220.01 100.95 237.07 100.96 240.55 130.5 223.49 130.49 220.01"/>
            <polygon class="cls-1" points="116.43 219.53 100.92 228.49 100.93 231.96 116.44 223.01 116.43 219.53"/>
          </g>
          <g class="cls-10">
            <polygon class="cls-8" points="202.66 138.84 210.42 134.36 210.41 130.89 202.65 135.37 202.66 138.84"/>
            <polygon class="cls-8" points="174.14 151.83 174.15 155.29 196.65 142.31 196.64 138.84 174.14 151.83"/>
            <polygon class="cls-8" points="141.23 174.31 166.8 159.54 166.79 156.07 141.22 170.84 141.23 174.31"/>
            <polygon class="cls-8" points="133.81 178.59 133.8 175.12 111.31 188.1 111.32 191.57 133.81 178.59"/>
          </g>
          <g class="cls-10">
            <polygon class="cls-8" points="116.29 107.85 76.94 130.57 76.95 134.04 116.3 111.32 116.29 107.85"/>
            <polygon class="cls-8" points="100.86 125.36 76.97 139.15 76.98 142.62 100.86 128.83 100.86 125.36"/>
            <polygon class="cls-8" points="111.26 122.82 185.54 79.94 185.53 76.47 111.25 119.36 111.26 122.82"/>
            <polygon class="cls-8" points="216.42 62.11 216.41 58.64 192.87 72.23 192.88 75.7 216.42 62.11"/>
            <polygon class="cls-8" points="235.41 51.15 235.4 47.68 223.63 54.47 223.64 57.94 235.41 51.15"/>
          </g>
          <g class="cls-10">
            <polygon class="cls-8" points="187.07 130.65 187.06 127.17 123.15 164.07 123.16 167.54 187.07 130.65"/>
            <polygon class="cls-8" points="115.86 168.28 89.06 183.75 89.07 187.23 115.87 171.75 115.86 168.28"/>
            <polygon class="cls-8" points="102.4 167.45 89.03 175.17 89.04 178.64 102.41 170.92 102.4 167.45"/>
          </g>
          <g class="cls-10">
            <polygon class="cls-8" points="200.83 182.88 208.58 178.41 208.57 174.93 200.82 179.41 200.83 182.88"/>
            <polygon class="cls-8" points="195.62 185.89 195.61 182.42 170.74 196.77 170.75 200.25 195.62 185.89"/>
            <polygon class="cls-8" points="245.1 162.44 136.04 225.41 136.05 228.88 245.11 165.92 245.1 162.44"/>
            <polygon class="cls-8" points="165.56 199.77 136.01 216.82 136.02 220.3 165.57 203.24 165.56 199.77"/>
            <polygon class="cls-8" points="111.46 239.6 111.47 243.07 130.53 232.07 130.52 228.6 111.46 239.6"/>
            <polygon class="cls-8" points="130.49 220.01 100.95 237.07 100.96 240.55 130.5 223.49 130.49 220.01"/>
            <polygon class="cls-8" points="116.43 219.53 100.92 228.49 100.93 231.96 116.44 223.01 116.43 219.53"/>
          </g>
        </g>
        <g>
          <polygon class="cls-8" points="59.5 171.77 59.52 180.36 59.5 171.77 59.5 171.77"/>
          <polygon class="cls-8" points="59.53 183.67 67.01 179.35 67.01 179.35 59.53 183.67 59.55 192.26 59.55 192.26 59.53 183.67"/>
          <rect class="cls-8" x="58.99" y="193.4" width="8.64" height="0" transform="translate(-88.22 57.56) rotate(-30)"/>
          <rect class="cls-8" x="59.11" y="236.66" width="8.64" height="0" transform="translate(-109.83 63.42) rotate(-30)"/>
          <polygon class="cls-8" points="66.93 152.26 59.45 156.58 66.93 152.26 66.93 152.26"/>
          <polygon class="cls-8" points="63.78 157.38 59.46 159.87 59.49 168.47 59.46 159.87 63.78 157.38"/>
          <polygon class="cls-8" points="66.97 164.15 59.49 168.47 66.97 164.15 66.97 164.15"/>
          <polygon class="cls-8" points="67 176.05 59.52 180.36 67 176.05 67 176.05"/>
          <polygon class="cls-8" points="64.04 248.22 59.72 250.72 59.74 259.31 59.75 259.31 59.72 250.72 64.04 248.22"/>
          <rect class="cls-8" x="59.04" y="212.87" width="8.64" transform="translate(-97.95 60.2) rotate(-30)"/>
          <rect class="cls-8" x="59.07" y="224.77" width="8.64" height="0" transform="translate(-103.89 61.81) rotate(-30)"/>
          <polygon class="cls-8" points="66.98 167.45 59.5 171.77 59.52 180.36 67 176.05 66.98 167.45"/>
          <polygon class="cls-8" points="59.55 192.26 67.03 187.94 67.01 179.35 59.53 183.67 59.55 192.26"/>
          <polygon class="cls-8" points="67.13 222.61 59.65 226.93 59.68 235.52 67.16 231.2 67.13 222.61"/>
          <polygon class="cls-8" points="59.71 247.41 67.19 243.09 67.17 234.5 59.69 238.82 59.71 247.41"/>
          <polygon class="cls-8" points="67.1 210.71 59.62 215.03 59.64 223.62 67.12 219.3 67.1 210.71"/>
          <path class="cls-1" d="M69.5,206.55l-12.3,7.1.17,61.71,12.3-7.1-.17-61.71ZM67.17,234.5l.02,8.59-7.48,4.32-.02-8.59h0s7.48-4.32,7.48-4.32h0ZM59.62,215.03h0l7.48-4.32h0l.02,8.59-7.48,4.32-.02-8.59ZM59.65,226.93h0s7.48-4.32,7.48-4.32h0s.02,8.59.02,8.59l-7.48,4.32-.02-8.59ZM59.74,259.31l-.02-8.59,4.32-2.49,3.16-1.83.02,8.59-7.48,4.32h0s0,0,0,0ZM59.78,271.2l-.02-8.59,7.48-4.32.02,8.59-7.48,4.32Z"/>
          <path class="cls-1" d="M69.31,139.5l-12.3,7.1.17,61.72,12.3-7.1-.17-61.72ZM59.43,147.98l7.48-4.32.02,8.59h0l-7.48,4.32-.02-8.59ZM59.46,159.87l4.32-2.49,3.16-1.82.02,8.59h0s-7.48,4.32-7.48,4.32l-.02-8.59ZM59.5,171.77h0l7.48-4.32.02,8.59h0l-7.48,4.32-.02-8.59ZM59.53,183.67l7.48-4.32h0s.02,8.59.02,8.59l-7.48,4.32h0l-.02-8.59ZM59.56,195.56h0s7.48-4.32,7.48-4.32h0s0,0,0,0l.02,8.59-7.48,4.32-.02-8.59Z"/>
          <path class="cls-5" d="M69.5,206.55l-12.3,7.1.17,61.71,12.3-7.1-.17-61.71ZM67.17,234.5l.02,8.59-7.48,4.32-.02-8.59h0s7.48-4.32,7.48-4.32h0ZM59.62,215.03h0l7.48-4.32h0l.02,8.59-7.48,4.32-.02-8.59ZM59.65,226.93h0s7.48-4.32,7.48-4.32h0s.02,8.59.02,8.59l-7.48,4.32-.02-8.59ZM59.74,259.31l-.02-8.59,4.32-2.49,3.16-1.83.02,8.59-7.48,4.32h0s0,0,0,0ZM59.78,271.2l-.02-8.59,7.48-4.32.02,8.59-7.48,4.32Z"/>
          <path class="cls-5" d="M69.31,139.5l-12.3,7.1.17,61.72,12.3-7.1-.17-61.72ZM59.43,147.98l7.48-4.32.02,8.59h0l-7.48,4.32-.02-8.59ZM59.46,159.87l4.32-2.49,3.16-1.82.02,8.59h0s-7.48,4.32-7.48,4.32l-.02-8.59ZM59.5,171.77h0l7.48-4.32.02,8.59h0l-7.48,4.32-.02-8.59ZM59.53,183.67l7.48-4.32h0s.02,8.59.02,8.59l-7.48,4.32h0l-.02-8.59ZM59.56,195.56h0s7.48-4.32,7.48-4.32h0s0,0,0,0l.02,8.59-7.48,4.32-.02-8.59Z"/>
          <polygon class="cls-8" points="66.97 164.15 66.94 155.55 63.78 157.38 59.46 159.87 59.49 168.47 66.97 164.15 66.97 164.15"/>
          <polygon class="cls-8" points="69.31 139.5 69.3 134.71 56.99 141.81 57.01 146.6 69.31 139.5 69.31 139.5"/>
          <polygon class="cls-8" points="66.93 152.26 66.91 143.66 59.43 147.98 59.45 156.58 66.93 152.26 66.93 152.26"/>
          <polygon class="cls-8" points="67.04 191.24 67.04 191.24 59.56 195.56 59.56 195.56 59.59 204.15 67.07 199.83 67.04 191.24"/>
          <polygon class="cls-8" points="67.22 254.99 67.2 246.4 64.04 248.22 59.72 250.72 59.75 259.31 59.75 259.31 67.22 254.99"/>
          <polygon class="cls-8" points="59.75 262.61 59.78 271.2 67.26 266.88 67.23 258.29 59.75 262.61"/>
        </g>
      </g>
      <g>
        <path class="cls-1" d="M215.42,84.05v-.21s0-3.11,0-3.11c0-1.31.92-2.91,2.06-3.57l59.75-34.5c.59-.34,1.13-.36,1.5-.11h0s2.02,1.45,2.02,1.45c0,0-1.32.82-1.32.86,0,0-.06,0-.13-.02v2.12s.01,2.56.01,2.56l-61.92,35.75-1.97-1.22Z"/>
        <path class="cls-7" d="M215.42,84.05v-.21s0-3.11,0-3.11c0-1.31.92-2.91,2.06-3.57l59.75-34.5c.59-.34,1.13-.36,1.5-.11h0s2.02,1.45,2.02,1.45c0,0-1.32.82-1.32.86,0,0-.06,0-.13-.02v2.12s.01,2.56.01,2.56l-61.92,35.75-1.97-1.22Z"/>
        <path class="cls-16" d="M217.39,85.26l61.92-35.75.12,42.48c0,1.31-.92,2.91-2.06,3.56l-58.83,33.97.54.67-.99,1.41-2.01-1.45h0c-.33-.24-.54-.67-.54-1.28l-.13-44.83,1.97,1.22Z"/>
        <path class="cls-1" d="M219.45,78.58c-1.14.66-2.07,2.26-2.06,3.57v3.11s63.89-36.88,63.89-36.88v-3.11c-.01-1.31-.94-1.84-2.08-1.18l-59.75,34.5Z"/>
        <g class="cls-18">
          <path class="cls-8" d="M219.45,78.58c-1.14.66-2.07,2.26-2.06,3.57v3.11s63.89-36.88,63.89-36.88v-3.11c-.01-1.31-.94-1.84-2.08-1.18l-59.75,34.5Z"/>
        </g>
        <path class="cls-25" d="M217.39,85.26l.13,45.04c0,1.31.94,1.83,2.08,1.18l59.75-34.5c1.14-.66,2.06-2.25,2.06-3.56l-.13-45.04-63.88,36.88Z"/>
        <g>
          <polygon class="cls-1" points="260.3 97.75 260.31 99.63 278.04 89.39 278.04 87.51 260.3 97.75"/>
          <g class="cls-14">
            <polygon class="cls-1" points="260.27 86.11 260.27 87.99 278.01 77.75 278 75.87 260.27 86.11"/>
            <polygon class="cls-1" points="265.58 74.92 265.59 76.8 277.98 69.64 277.98 67.76 265.58 74.92"/>
            <polygon class="cls-1" points="243.53 111.5 243.53 113.37 266.35 100.2 266.34 98.33 243.53 111.5"/>
            <polygon class="cls-1" points="237.82 106.65 237.82 108.53 266.33 92.07 266.32 90.19 237.82 106.65"/>
            <polygon class="cls-1" points="252.14 78.04 252.15 79.92 266.27 71.77 266.26 69.89 252.14 78.04"/>
            <polygon class="cls-1" points="231.5 98.65 231.51 100.53 266.29 80.45 266.29 78.57 231.5 98.65"/>
            <polygon class="cls-1" points="220.68 113.03 220.68 114.91 266.32 88.56 266.31 86.68 220.68 113.03"/>
          </g>
          <polygon class="cls-1" points="220.62 92.72 220.62 94.6 266.26 68.25 266.25 66.37 220.62 92.72"/>
          <polygon class="cls-1" points="260.21 65.8 260.22 67.68 277.95 57.44 277.94 55.56 260.21 65.8"/>
        </g>
        <g class="cls-18">
          <polygon class="cls-8" points="260.3 97.75 260.31 99.63 278.04 89.39 278.04 87.51 260.3 97.75"/>
          <g class="cls-14">
            <polygon class="cls-8" points="260.27 86.11 260.27 87.99 278.01 77.75 278 75.87 260.27 86.11"/>
            <polygon class="cls-8" points="265.58 74.92 265.59 76.8 277.98 69.64 277.98 67.76 265.58 74.92"/>
            <polygon class="cls-8" points="243.53 111.5 243.53 113.37 266.35 100.2 266.34 98.33 243.53 111.5"/>
            <polygon class="cls-8" points="237.82 106.65 237.82 108.53 266.33 92.07 266.32 90.19 237.82 106.65"/>
            <polygon class="cls-8" points="252.14 78.04 252.15 79.92 266.27 71.77 266.26 69.89 252.14 78.04"/>
            <polygon class="cls-8" points="231.5 98.65 231.51 100.53 266.29 80.45 266.29 78.57 231.5 98.65"/>
            <polygon class="cls-8" points="220.68 113.03 220.68 114.91 266.32 88.56 266.31 86.68 220.68 113.03"/>
          </g>
          <polygon class="cls-8" points="220.62 92.72 220.62 94.6 266.26 68.25 266.25 66.37 220.62 92.72"/>
          <polygon class="cls-8" points="260.21 65.8 260.22 67.68 277.95 57.44 277.94 55.56 260.21 65.8"/>
        </g>
      </g>
      <g>
        <path class="cls-1" d="M62.41,270.61v-.24s-.01-3.57-.01-3.57c0-1.5,1.06-3.34,2.37-4.09l68.58-39.6c.68-.39,1.29-.41,1.73-.13h0s2.32,1.67,2.32,1.67c0,0-1.51.95-1.51.98,0,0-.06,0-.15-.03v2.44s.02,2.94.02,2.94l-71.07,41.04-2.26-1.4Z"/>
        <path class="cls-5" d="M62.41,270.61v-.24s-.01-3.57-.01-3.57c0-1.5,1.06-3.34,2.37-4.09l68.58-39.6c.68-.39,1.29-.41,1.73-.13h0s2.32,1.67,2.32,1.67c0,0-1.51.95-1.51.98,0,0-.06,0-.15-.03v2.44s.02,2.94.02,2.94l-71.07,41.04-2.26-1.4Z"/>
        <path class="cls-16" d="M64.67,272.01l71.07-41.04.14,48.76c0,1.5-1.05,3.33-2.36,4.09l-67.53,38.99.62.77-1.13,1.62-2.31-1.67h0c-.38-.27-.62-.76-.62-1.47l-.15-51.46,2.26,1.4Z"/>
        <path class="cls-1" d="M67.03,264.34c-1.31.76-2.37,2.59-2.37,4.09v3.57s73.34-42.34,73.34-42.34v-3.57c-.01-1.5-1.08-2.11-2.39-1.35l-68.58,39.6Z"/>
        <g class="cls-19">
          <path class="cls-8" d="M67.03,264.34c-1.31.76-2.37,2.59-2.37,4.09v3.57s73.34-42.34,73.34-42.34v-3.57c-.01-1.5-1.08-2.11-2.39-1.35l-68.58,39.6Z"/>
        </g>
        <path class="cls-25" d="M64.67,272.01l.15,51.7c0,1.5,1.08,2.11,2.38,1.35l68.58-39.6c1.31-.76,2.37-2.59,2.36-4.09l-.15-51.7-73.33,42.34Z"/>
        <g>
          <polygon class="cls-1" points="68.48 312.97 68.48 315.13 88.84 303.38 88.83 301.22 68.48 312.97"/>
          <polygon class="cls-1" points="68.44 299.61 68.44 301.77 88.8 290.02 88.8 287.86 68.44 299.61"/>
          <polygon class="cls-1" points="68.44 290.43 68.44 292.58 82.68 284.37 82.67 282.21 68.44 290.43"/>
          <polygon class="cls-1" points="82.72 309.01 82.72 311.16 108.92 296.04 108.91 293.89 82.72 309.01"/>
          <polygon class="cls-1" points="82.78 299.75 82.79 301.91 115.51 283.02 115.5 280.86 82.78 299.75"/>
          <polygon class="cls-1" points="81.59 277.1 81.59 279.26 97.8 269.9 97.8 267.74 81.59 277.1"/>
          <polygon class="cls-1" points="82.81 285.84 82.82 288 122.75 264.95 122.74 262.79 82.81 285.84"/>
          <polygon class="cls-1" points="82.78 295.88 82.79 298.04 135.17 267.79 135.17 265.63 82.78 295.88"/>
          <polygon class="cls-1" points="81.52 273.24 81.53 275.39 133.91 245.15 133.9 242.99 81.52 273.24"/>
          <polygon class="cls-1" points="68.37 276.29 68.38 278.45 88.74 266.7 88.73 264.54 68.37 276.29"/>
        </g>
        <g class="cls-18">
          <polygon class="cls-8" points="68.48 312.97 68.48 315.13 88.84 303.38 88.83 301.22 68.48 312.97"/>
          <polygon class="cls-8" points="68.44 299.61 68.44 301.77 88.8 290.02 88.8 287.86 68.44 299.61"/>
          <polygon class="cls-8" points="68.44 290.43 68.44 292.58 82.68 284.37 82.67 282.21 68.44 290.43"/>
          <polygon class="cls-8" points="82.72 309.01 82.72 311.16 108.92 296.04 108.91 293.89 82.72 309.01"/>
          <polygon class="cls-8" points="82.78 299.75 82.79 301.91 115.51 283.02 115.5 280.86 82.78 299.75"/>
          <polygon class="cls-8" points="81.59 277.1 81.59 279.26 97.8 269.9 97.8 267.74 81.59 277.1"/>
          <polygon class="cls-8" points="82.81 285.84 82.82 288 122.75 264.95 122.74 262.79 82.81 285.84"/>
          <polygon class="cls-8" points="82.78 295.88 82.79 298.04 135.17 267.79 135.17 265.63 82.78 295.88"/>
          <polygon class="cls-8" points="81.52 273.24 81.53 275.39 133.91 245.15 133.9 242.99 81.52 273.24"/>
          <polygon class="cls-8" points="68.37 276.29 68.38 278.45 88.74 266.7 88.73 264.54 68.37 276.29"/>
        </g>
      </g>
    </g>
  </g>
  <g id="Server">
    <g>
      <g>
        <g>
          <polygon class="cls-27" points="396.07 237.11 396.07 224.61 340.3 204.91 284.54 224.61 284.54 237.32 340.67 269.72 396.43 237.32 396.07 237.11"/>
          <polygon class="cls-11" points="396.07 237.11 396.07 224.61 340.3 204.91 284.54 224.61 284.54 237.32 340.67 269.72 396.43 237.32 396.07 237.11"/>
        </g>
        <g>
          <g>
            <polygon class="cls-27" points="402.99 207.66 340.28 171.45 277.98 207.66 340.69 243.86 402.99 207.66"/>
            <polygon class="cls-19" points="402.99 207.66 340.28 171.45 277.98 207.66 340.69 243.86 402.99 207.66"/>
            <polygon class="cls-27" points="340.69 243.86 340.63 265.7 402.93 229.49 402.99 207.66 340.69 243.86"/>
            <polygon class="cls-9" points="340.69 243.86 340.63 265.7 402.93 229.49 402.99 207.66 340.69 243.86"/>
            <polygon class="cls-27" points="277.98 207.66 277.92 229.49 340.63 265.7 340.69 243.86 277.98 207.66"/>
            <polygon class="cls-23" points="282.25 216.05 282.22 226.28 311.58 243.22 311.61 233 282.25 216.05"/>
            <g>
              <path class="cls-27" d="M285.38,221.37l-.86-.49c-.42-.24-.76-.05-.76.43v2.25c0,.48.33,1.07.75,1.31l.86.49c.42.24.76.05.76-.43v-2.25c0-.48-.33-1.07-.75-1.31Z"/>
              <path class="cls-27" d="M288.8,223.35l-.86-.49c-.42-.24-.76-.05-.76.43v2.25c0,.48.33,1.07.75,1.31l.86.49c.42.24.76.05.76-.43v-2.25c0-.48-.33-1.07-.75-1.31Z"/>
              <path class="cls-27" d="M292.22,225.32l-.85-.49c-.42-.24-.76-.05-.76.43v2.25c0,.48.33,1.07.75,1.31l.86.49c.42.24.76.05.76-.43v-2.25c0-.48-.33-1.07-.75-1.31Z"/>
              <path class="cls-27" d="M295.64,227.3l-.85-.49c-.42-.24-.76-.05-.76.43v2.25c0,.48.33,1.07.75,1.31l.86.49c.42.24.76.05.76-.43v-2.25c0-.48-.33-1.07-.75-1.31Z"/>
              <path class="cls-27" d="M299.06,229.27l-.85-.49c-.42-.24-.76-.05-.76.43v2.25c0,.48.33,1.07.75,1.31l.86.49c.42.24.76.05.76-.43v-2.25c0-.48-.33-1.07-.75-1.31Z"/>
              <path class="cls-27" d="M302.48,231.25l-.86-.49c-.42-.24-.76-.05-.76.43v2.25c0,.48.33,1.07.75,1.31l.86.49c.42.24.76.05.76-.43v-2.25c0-.48-.33-1.07-.75-1.31Z"/>
              <path class="cls-27" d="M305.9,233.22l-.86-.49c-.42-.24-.76-.05-.76.43v2.25c0,.48.33,1.07.75,1.31l.86.49c.42.24.76.05.76-.43v-2.25c0-.48-.33-1.07-.75-1.31Z"/>
              <path class="cls-10" d="M288.8,223.35l-.86-.49c-.42-.24-.76-.05-.76.43v2.25c0,.48.33,1.07.75,1.31l.86.49c.42.24.76.05.76-.43v-2.25c0-.48-.33-1.07-.75-1.31Z"/>
              <path class="cls-10" d="M295.64,227.3l-.85-.49c-.42-.24-.76-.05-.76.43v2.25c0,.48.33,1.07.75,1.31l.86.49c.42.24.76.05.76-.43v-2.25c0-.48-.33-1.07-.75-1.31Z"/>
              <path class="cls-10" d="M299.06,229.27l-.85-.49c-.42-.24-.76-.05-.76.43v2.25c0,.48.33,1.07.75,1.31l.86.49c.42.24.76.05.76-.43v-2.25c0-.48-.33-1.07-.75-1.31Z"/>
              <path class="cls-10" d="M305.9,233.22l-.86-.49c-.42-.24-.76-.05-.76.43v2.25c0,.48.33,1.07.75,1.31l.86.49c.42.24.76.05.76-.43v-2.25c0-.48-.33-1.07-.75-1.31Z"/>
              <path class="cls-27" d="M309.32,235.2l-.85-.49c-.42-.24-.76-.05-.76.43v2.25c0,.48.33,1.07.75,1.31l.86.49c.42.24.76.05.76-.43v-2.25c0-.48-.33-1.07-.75-1.31Z"/>
            </g>
          </g>
          <g>
            <path class="cls-27" d="M334.16,251.46c0-1.54-1.08-3.42-2.42-4.19-.66-.38-1.25-.42-1.69-.19h0s-.02,0-.02,0c0,0-.02,0-.02.01l-1.95,1.1h0c.44-.24,1.04-.19,1.7.19,1.34.77,2.42,2.65,2.42,4.19,0,.75-.27,1.29-.69,1.54l1.88-1.06c.05-.03.11-.05.16-.09h.02s0,0,0,0c.39-.27.63-.79.63-1.5Z"/>
            <path class="cls-9" d="M334.16,251.46c0-1.54-1.08-3.42-2.42-4.19-.66-.38-1.25-.42-1.69-.19h0s-.02,0-.02,0c0,0-.02,0-.02.01l-1.95,1.1h0c.44-.24,1.04-.19,1.7.19,1.34.77,2.42,2.65,2.42,4.19,0,.75-.27,1.29-.69,1.54l1.88-1.06c.05-.03.11-.05.16-.09h.02s0,0,0,0c.39-.27.63-.79.63-1.5Z"/>
            <path class="cls-26" d="M331.41,254.17h.01s-.01,0-.02,0h0Z"/>
            <path class="cls-27" d="M332.17,252.58c0-1.54-1.08-3.42-2.42-4.19-.66-.38-1.26-.42-1.7-.19-.45.25-.74.79-.74,1.58,0,1.54,1.08,3.42,2.42,4.19.65.37,1.24.42,1.67.19,0,0,.01,0,.02,0,.02,0,.04-.02.05-.03.43-.26.69-.79.69-1.54Z"/>
            <path class="cls-19" d="M332.17,252.58c0-1.54-1.08-3.42-2.42-4.19-.66-.38-1.26-.42-1.7-.19-.45.25-.74.79-.74,1.58,0,1.54,1.08,3.42,2.42,4.19.65.37,1.24.42,1.67.19,0,0,.01,0,.02,0,.02,0,.04-.02.05-.03.43-.26.69-.79.69-1.54Z"/>
          </g>
          <g>
            <path class="cls-27" d="M324.6,245.71c0-1.54-1.08-3.42-2.42-4.19-.66-.38-1.25-.42-1.69-.19h0s-.02,0-.02,0c0,0-.02,0-.02.01l-1.95,1.1h0c.44-.24,1.04-.19,1.7.19,1.34.77,2.42,2.65,2.42,4.19,0,.75-.27,1.29-.69,1.54l1.88-1.06c.05-.03.11-.05.16-.09h.02s0,0,0,0c.39-.27.63-.79.63-1.5Z"/>
            <path class="cls-9" d="M324.6,245.71c0-1.54-1.08-3.42-2.42-4.19-.66-.38-1.25-.42-1.69-.19h0s-.02,0-.02,0c0,0-.02,0-.02.01l-1.95,1.1h0c.44-.24,1.04-.19,1.7.19,1.34.77,2.42,2.65,2.42,4.19,0,.75-.27,1.29-.69,1.54l1.88-1.06c.05-.03.11-.05.16-.09h.02s0,0,0,0c.39-.27.63-.79.63-1.5Z"/>
            <path class="cls-26" d="M321.86,248.42h.01s-.01,0-.02,0h0Z"/>
            <path class="cls-27" d="M322.62,246.83c0-1.54-1.08-3.42-2.42-4.19-.66-.38-1.26-.42-1.7-.19-.45.25-.74.79-.74,1.58,0,1.54,1.08,3.42,2.42,4.19.65.37,1.24.42,1.67.19,0,0,.01,0,.02,0,.02,0,.04-.02.05-.03.43-.26.69-.79.69-1.54Z"/>
            <path class="cls-19" d="M322.62,246.83c0-1.54-1.08-3.42-2.42-4.19-.66-.38-1.26-.42-1.7-.19-.45.25-.74.79-.74,1.58,0,1.54,1.08,3.42,2.42,4.19.65.37,1.24.42,1.67.19,0,0,.01,0,.02,0,.02,0,.04-.02.05-.03.43-.26.69-.79.69-1.54Z"/>
          </g>
        </g>
      </g>
      <g>
        <g>
          <polygon class="cls-27" points="396.07 206.63 396.07 194.13 340.3 174.43 284.54 194.13 284.54 206.84 340.67 239.25 396.43 206.84 396.07 206.63"/>
          <polygon class="cls-11" points="396.07 206.63 396.07 194.13 340.3 174.43 284.54 194.13 284.54 206.84 340.67 239.25 396.43 206.84 396.07 206.63"/>
        </g>
        <g>
          <g>
            <polygon class="cls-27" points="402.99 177.18 340.28 140.98 277.98 177.18 340.69 213.39 402.99 177.18"/>
            <polygon class="cls-19" points="402.99 177.18 340.28 140.98 277.98 177.18 340.69 213.39 402.99 177.18"/>
            <polygon class="cls-27" points="340.69 213.39 340.63 235.22 402.93 199.01 402.99 177.18 340.69 213.39"/>
            <polygon class="cls-9" points="340.69 213.39 340.63 235.22 402.93 199.01 402.99 177.18 340.69 213.39"/>
            <polygon class="cls-27" points="277.98 177.18 277.92 199.02 340.63 235.22 340.69 213.39 277.98 177.18"/>
            <polygon class="cls-23" points="282.25 185.58 282.22 195.8 311.58 212.75 311.61 202.52 282.25 185.58"/>
            <g>
              <path class="cls-27" d="M285.38,190.9l-.86-.49c-.42-.24-.76-.05-.76.43v2.25c0,.48.33,1.07.75,1.31l.86.49c.42.24.76.05.76-.43v-2.25c0-.48-.33-1.07-.75-1.31Z"/>
              <path class="cls-27" d="M288.8,192.87l-.86-.49c-.42-.24-.76-.05-.76.43v2.25c0,.48.33,1.07.75,1.31l.86.49c.42.24.76.05.76-.43v-2.25c0-.48-.33-1.07-.75-1.31Z"/>
              <path class="cls-27" d="M292.22,194.85l-.85-.49c-.42-.24-.76-.05-.76.43v2.25c0,.48.33,1.07.75,1.31l.86.49c.42.24.76.05.76-.43v-2.25c0-.48-.33-1.07-.75-1.31Z"/>
              <path class="cls-27" d="M295.64,196.82l-.85-.49c-.42-.24-.76-.05-.76.43v2.25c0,.48.33,1.07.75,1.31l.86.49c.42.24.76.05.76-.43v-2.25c0-.48-.33-1.07-.75-1.31Z"/>
              <path class="cls-27" d="M299.06,198.79l-.85-.49c-.42-.24-.76-.05-.76.43v2.25c0,.48.33,1.07.75,1.31l.86.49c.42.24.76.05.76-.43v-2.25c0-.48-.33-1.07-.75-1.31Z"/>
              <path class="cls-27" d="M302.48,200.77l-.86-.49c-.42-.24-.76-.05-.76.43v2.25c0,.48.33,1.07.75,1.31l.86.49c.42.24.76.05.76-.43v-2.25c0-.48-.33-1.07-.75-1.31Z"/>
              <path class="cls-27" d="M305.9,202.74l-.86-.49c-.42-.24-.76-.05-.76.43v2.25c0,.48.33,1.07.75,1.31l.86.49c.42.24.76.05.76-.43v-2.25c0-.48-.33-1.07-.75-1.31Z"/>
              <path class="cls-10" d="M288.8,192.87l-.86-.49c-.42-.24-.76-.05-.76.43v2.25c0,.48.33,1.07.75,1.31l.86.49c.42.24.76.05.76-.43v-2.25c0-.48-.33-1.07-.75-1.31Z"/>
              <path class="cls-10" d="M295.64,196.82l-.85-.49c-.42-.24-.76-.05-.76.43v2.25c0,.48.33,1.07.75,1.31l.86.49c.42.24.76.05.76-.43v-2.25c0-.48-.33-1.07-.75-1.31Z"/>
              <path class="cls-10" d="M299.06,198.79l-.85-.49c-.42-.24-.76-.05-.76.43v2.25c0,.48.33,1.07.75,1.31l.86.49c.42.24.76.05.76-.43v-2.25c0-.48-.33-1.07-.75-1.31Z"/>
              <path class="cls-10" d="M305.9,202.74l-.86-.49c-.42-.24-.76-.05-.76.43v2.25c0,.48.33,1.07.75,1.31l.86.49c.42.24.76.05.76-.43v-2.25c0-.48-.33-1.07-.75-1.31Z"/>
              <path class="cls-27" d="M309.32,204.72l-.85-.49c-.42-.24-.76-.05-.76.43v2.25c0,.48.33,1.07.75,1.31l.86.49c.42.24.76.05.76-.43v-2.25c0-.48-.33-1.07-.75-1.31Z"/>
            </g>
          </g>
          <g>
            <path class="cls-27" d="M334.16,220.98c0-1.54-1.08-3.42-2.42-4.19-.66-.38-1.25-.42-1.69-.19h0s-.02,0-.02,0c0,0-.02,0-.02.01l-1.95,1.1h0c.44-.24,1.04-.19,1.7.19,1.34.77,2.42,2.65,2.42,4.19,0,.75-.27,1.29-.69,1.54l1.88-1.06c.05-.03.11-.05.16-.09h.02s0,0,0,0c.39-.27.63-.79.63-1.5Z"/>
            <path class="cls-9" d="M334.16,220.98c0-1.54-1.08-3.42-2.42-4.19-.66-.38-1.25-.42-1.69-.19h0s-.02,0-.02,0c0,0-.02,0-.02.01l-1.95,1.1h0c.44-.24,1.04-.19,1.7.19,1.34.77,2.42,2.65,2.42,4.19,0,.75-.27,1.29-.69,1.54l1.88-1.06c.05-.03.11-.05.16-.09h.02s0,0,0,0c.39-.27.63-.79.63-1.5Z"/>
            <path class="cls-26" d="M331.41,223.69h.01s-.01,0-.02,0h0Z"/>
            <path class="cls-27" d="M332.17,222.1c0-1.54-1.08-3.42-2.42-4.19-.66-.38-1.26-.42-1.7-.19-.45.25-.74.79-.74,1.58,0,1.54,1.08,3.42,2.42,4.19.65.37,1.24.42,1.67.19,0,0,.01,0,.02,0,.02,0,.04-.02.05-.03.43-.26.69-.79.69-1.54Z"/>
            <path class="cls-19" d="M332.17,222.1c0-1.54-1.08-3.42-2.42-4.19-.66-.38-1.26-.42-1.7-.19-.45.25-.74.79-.74,1.58,0,1.54,1.08,3.42,2.42,4.19.65.37,1.24.42,1.67.19,0,0,.01,0,.02,0,.02,0,.04-.02.05-.03.43-.26.69-.79.69-1.54Z"/>
          </g>
          <g>
            <path class="cls-27" d="M324.6,215.23c0-1.54-1.08-3.42-2.42-4.19-.66-.38-1.25-.42-1.69-.19h0s-.02,0-.02,0c0,0-.02,0-.02.01l-1.95,1.1h0c.44-.24,1.04-.19,1.7.19,1.34.77,2.42,2.65,2.42,4.19,0,.75-.27,1.29-.69,1.54l1.88-1.06c.05-.03.11-.05.16-.09h.02s0,0,0,0c.39-.27.63-.79.63-1.5Z"/>
            <path class="cls-9" d="M324.6,215.23c0-1.54-1.08-3.42-2.42-4.19-.66-.38-1.25-.42-1.69-.19h0s-.02,0-.02,0c0,0-.02,0-.02.01l-1.95,1.1h0c.44-.24,1.04-.19,1.7.19,1.34.77,2.42,2.65,2.42,4.19,0,.75-.27,1.29-.69,1.54l1.88-1.06c.05-.03.11-.05.16-.09h.02s0,0,0,0c.39-.27.63-.79.63-1.5Z"/>
            <path class="cls-26" d="M321.86,217.94h.01s-.01,0-.02,0h0Z"/>
            <path class="cls-27" d="M322.62,216.35c0-1.54-1.08-3.42-2.42-4.19-.66-.38-1.26-.42-1.7-.19-.45.25-.74.79-.74,1.58,0,1.54,1.08,3.42,2.42,4.19.65.37,1.24.42,1.67.19,0,0,.01,0,.02,0,.02,0,.04-.02.05-.03.43-.26.69-.79.69-1.54Z"/>
            <path class="cls-19" d="M322.62,216.35c0-1.54-1.08-3.42-2.42-4.19-.66-.38-1.26-.42-1.7-.19-.45.25-.74.79-.74,1.58,0,1.54,1.08,3.42,2.42,4.19.65.37,1.24.42,1.67.19,0,0,.01,0,.02,0,.02,0,.04-.02.05-.03.43-.26.69-.79.69-1.54Z"/>
          </g>
        </g>
      </g>
      <g>
        <g>
          <polygon class="cls-27" points="396.07 176.15 396.07 163.65 340.3 143.96 284.54 163.65 284.54 176.36 340.67 208.77 396.43 176.36 396.07 176.15"/>
          <polygon class="cls-11" points="396.07 176.15 396.07 163.65 340.3 143.96 284.54 163.65 284.54 176.36 340.67 208.77 396.43 176.36 396.07 176.15"/>
        </g>
        <g>
          <g>
            <polygon class="cls-27" points="402.99 146.7 340.28 110.5 277.98 146.7 340.69 182.91 402.99 146.7"/>
            <polygon class="cls-19" points="402.99 146.7 340.28 110.5 277.98 146.7 340.69 182.91 402.99 146.7"/>
            <polygon class="cls-27" points="340.69 182.91 340.63 204.74 402.93 168.54 402.99 146.7 340.69 182.91"/>
            <polygon class="cls-9" points="340.69 182.91 340.63 204.74 402.93 168.54 402.99 146.7 340.69 182.91"/>
            <polygon class="cls-27" points="277.98 146.7 277.92 168.54 340.63 204.74 340.69 182.91 277.98 146.7"/>
            <polygon class="cls-23" points="282.25 155.1 282.22 165.32 311.58 182.27 311.61 172.05 282.25 155.1"/>
            <g>
              <path class="cls-27" d="M285.38,160.42l-.86-.49c-.42-.24-.76-.05-.76.43v2.25c0,.48.33,1.07.75,1.31l.86.49c.42.24.76.05.76-.43v-2.25c0-.48-.33-1.07-.75-1.31Z"/>
              <path class="cls-27" d="M288.8,162.39l-.86-.49c-.42-.24-.76-.05-.76.43v2.25c0,.48.33,1.07.75,1.31l.86.49c.42.24.76.05.76-.43v-2.25c0-.48-.33-1.07-.75-1.31Z"/>
              <path class="cls-27" d="M292.22,164.37l-.85-.49c-.42-.24-.76-.05-.76.43v2.25c0,.48.33,1.07.75,1.31l.86.49c.42.24.76.05.76-.43v-2.25c0-.48-.33-1.07-.75-1.31Z"/>
              <path class="cls-27" d="M295.64,166.34l-.85-.49c-.42-.24-.76-.05-.76.43v2.25c0,.48.33,1.07.75,1.31l.86.49c.42.24.76.05.76-.43v-2.25c0-.48-.33-1.07-.75-1.31Z"/>
              <path class="cls-27" d="M299.06,168.32l-.85-.49c-.42-.24-.76-.05-.76.43v2.25c0,.48.33,1.07.75,1.31l.86.49c.42.24.76.05.76-.43v-2.25c0-.48-.33-1.07-.75-1.31Z"/>
              <path class="cls-27" d="M302.48,170.29l-.86-.49c-.42-.24-.76-.05-.76.43v2.25c0,.48.33,1.07.75,1.31l.86.49c.42.24.76.05.76-.43v-2.25c0-.48-.33-1.07-.75-1.31Z"/>
              <path class="cls-27" d="M305.9,172.27l-.86-.49c-.42-.24-.76-.05-.76.43v2.25c0,.48.33,1.07.75,1.31l.86.49c.42.24.76.05.76-.43v-2.25c0-.48-.33-1.07-.75-1.31Z"/>
              <path class="cls-10" d="M288.8,162.39l-.86-.49c-.42-.24-.76-.05-.76.43v2.25c0,.48.33,1.07.75,1.31l.86.49c.42.24.76.05.76-.43v-2.25c0-.48-.33-1.07-.75-1.31Z"/>
              <path class="cls-10" d="M295.64,166.34l-.85-.49c-.42-.24-.76-.05-.76.43v2.25c0,.48.33,1.07.75,1.31l.86.49c.42.24.76.05.76-.43v-2.25c0-.48-.33-1.07-.75-1.31Z"/>
              <path class="cls-10" d="M299.06,168.32l-.85-.49c-.42-.24-.76-.05-.76.43v2.25c0,.48.33,1.07.75,1.31l.86.49c.42.24.76.05.76-.43v-2.25c0-.48-.33-1.07-.75-1.31Z"/>
              <path class="cls-10" d="M305.9,172.27l-.86-.49c-.42-.24-.76-.05-.76.43v2.25c0,.48.33,1.07.75,1.31l.86.49c.42.24.76.05.76-.43v-2.25c0-.48-.33-1.07-.75-1.31Z"/>
              <path class="cls-27" d="M309.32,174.24l-.85-.49c-.42-.24-.76-.05-.76.43v2.25c0,.48.33,1.07.75,1.31l.86.49c.42.24.76.05.76-.43v-2.25c0-.48-.33-1.07-.75-1.31Z"/>
            </g>
          </g>
          <g>
            <path class="cls-27" d="M334.16,190.5c0-1.54-1.08-3.42-2.42-4.19-.66-.38-1.25-.42-1.69-.19h0s-.02,0-.02,0c0,0-.02,0-.02.01l-1.95,1.1h0c.44-.24,1.04-.19,1.7.19,1.34.77,2.42,2.65,2.42,4.19,0,.75-.27,1.29-.69,1.54l1.88-1.06c.05-.03.11-.05.16-.09h.02s0,0,0,0c.39-.27.63-.79.63-1.5Z"/>
            <path class="cls-9" d="M334.16,190.5c0-1.54-1.08-3.42-2.42-4.19-.66-.38-1.25-.42-1.69-.19h0s-.02,0-.02,0c0,0-.02,0-.02.01l-1.95,1.1h0c.44-.24,1.04-.19,1.7.19,1.34.77,2.42,2.65,2.42,4.19,0,.75-.27,1.29-.69,1.54l1.88-1.06c.05-.03.11-.05.16-.09h.02s0,0,0,0c.39-.27.63-.79.63-1.5Z"/>
            <path class="cls-26" d="M331.41,193.21h.01s-.01,0-.02,0h0Z"/>
            <path class="cls-27" d="M332.17,191.62c0-1.54-1.08-3.42-2.42-4.19-.66-.38-1.26-.42-1.7-.19-.45.25-.74.79-.74,1.58,0,1.54,1.08,3.42,2.42,4.19.65.37,1.24.42,1.67.19,0,0,.01,0,.02,0,.02,0,.04-.02.05-.03.43-.26.69-.79.69-1.54Z"/>
            <path class="cls-19" d="M332.17,191.62c0-1.54-1.08-3.42-2.42-4.19-.66-.38-1.26-.42-1.7-.19-.45.25-.74.79-.74,1.58,0,1.54,1.08,3.42,2.42,4.19.65.37,1.24.42,1.67.19,0,0,.01,0,.02,0,.02,0,.04-.02.05-.03.43-.26.69-.79.69-1.54Z"/>
          </g>
          <g>
            <path class="cls-27" d="M324.6,184.76c0-1.54-1.08-3.42-2.42-4.19-.66-.38-1.25-.42-1.69-.19h0s-.02,0-.02,0c0,0-.02,0-.02.01l-1.95,1.1h0c.44-.24,1.04-.19,1.7.19,1.34.77,2.42,2.65,2.42,4.19,0,.75-.27,1.29-.69,1.54l1.88-1.06c.05-.03.11-.05.16-.09h.02s0,0,0,0c.39-.27.63-.79.63-1.5Z"/>
            <path class="cls-9" d="M324.6,184.76c0-1.54-1.08-3.42-2.42-4.19-.66-.38-1.25-.42-1.69-.19h0s-.02,0-.02,0c0,0-.02,0-.02.01l-1.95,1.1h0c.44-.24,1.04-.19,1.7.19,1.34.77,2.42,2.65,2.42,4.19,0,.75-.27,1.29-.69,1.54l1.88-1.06c.05-.03.11-.05.16-.09h.02s0,0,0,0c.39-.27.63-.79.63-1.5Z"/>
            <path class="cls-26" d="M321.86,187.46h.01s-.01,0-.02,0h0Z"/>
            <path class="cls-27" d="M322.62,185.88c0-1.54-1.08-3.42-2.42-4.19-.66-.38-1.26-.42-1.7-.19-.45.25-.74.79-.74,1.58,0,1.54,1.08,3.42,2.42,4.19.65.37,1.24.42,1.67.19,0,0,.01,0,.02,0,.02,0,.04-.02.05-.03.43-.26.69-.79.69-1.54Z"/>
            <path class="cls-19" d="M322.62,185.88c0-1.54-1.08-3.42-2.42-4.19-.66-.38-1.26-.42-1.7-.19-.45.25-.74.79-.74,1.58,0,1.54,1.08,3.42,2.42,4.19.65.37,1.24.42,1.67.19,0,0,.01,0,.02,0,.02,0,.04-.02.05-.03.43-.26.69-.79.69-1.54Z"/>
          </g>
        </g>
      </g>
      <g>
        <g>
          <polygon class="cls-27" points="396.07 145.67 396.07 133.17 340.3 113.48 284.54 133.17 284.54 145.88 340.67 178.29 396.43 145.88 396.07 145.67"/>
          <polygon class="cls-11" points="396.07 145.67 396.07 133.17 340.3 113.48 284.54 133.17 284.54 145.88 340.67 178.29 396.43 145.88 396.07 145.67"/>
        </g>
        <g>
          <g>
            <polygon class="cls-27" points="402.99 116.22 340.28 80.02 277.98 116.22 340.69 152.43 402.99 116.22"/>
            <polygon class="cls-19" points="402.99 116.22 340.28 80.02 277.98 116.22 340.69 152.43 402.99 116.22"/>
            <polygon class="cls-27" points="340.69 152.43 340.63 174.26 402.93 138.06 402.99 116.22 340.69 152.43"/>
            <polygon class="cls-9" points="340.69 152.43 340.63 174.26 402.93 138.06 402.99 116.22 340.69 152.43"/>
            <polygon class="cls-27" points="277.98 116.22 277.92 138.06 340.63 174.26 340.69 152.43 277.98 116.22"/>
            <polygon class="cls-23" points="282.25 124.62 282.22 134.84 311.58 151.79 311.61 141.57 282.25 124.62"/>
            <g>
              <path class="cls-27" d="M285.38,129.94l-.86-.49c-.42-.24-.76-.05-.76.43v2.25c0,.48.33,1.07.75,1.31l.86.49c.42.24.76.05.76-.43v-2.25c0-.48-.33-1.07-.75-1.31Z"/>
              <path class="cls-27" d="M288.8,131.91l-.86-.49c-.42-.24-.76-.05-.76.43v2.25c0,.48.33,1.07.75,1.31l.86.49c.42.24.76.05.76-.43v-2.25c0-.48-.33-1.07-.75-1.31Z"/>
              <path class="cls-27" d="M292.22,133.89l-.85-.49c-.42-.24-.76-.05-.76.43v2.25c0,.48.33,1.07.75,1.31l.86.49c.42.24.76.05.76-.43v-2.25c0-.48-.33-1.07-.75-1.31Z"/>
              <path class="cls-27" d="M295.64,135.86l-.85-.49c-.42-.24-.76-.05-.76.43v2.25c0,.48.33,1.07.75,1.31l.86.49c.42.24.76.05.76-.43v-2.25c0-.48-.33-1.07-.75-1.31Z"/>
              <path class="cls-27" d="M299.06,137.84l-.85-.49c-.42-.24-.76-.05-.76.43v2.25c0,.48.33,1.07.75,1.31l.86.49c.42.24.76.05.76-.43v-2.25c0-.48-.33-1.07-.75-1.31Z"/>
              <path class="cls-27" d="M302.48,139.81l-.86-.49c-.42-.25-.76-.05-.76.43v2.25c0,.48.33,1.07.75,1.31l.86.49c.42.24.76.05.76-.43v-2.25c0-.48-.33-1.07-.75-1.31Z"/>
              <path class="cls-27" d="M305.9,141.79l-.86-.49c-.42-.24-.76-.05-.76.43v2.25c0,.48.33,1.07.75,1.31l.86.49c.42.24.76.05.76-.43v-2.25c0-.48-.33-1.07-.75-1.31Z"/>
              <path class="cls-10" d="M288.8,131.91l-.86-.49c-.42-.24-.76-.05-.76.43v2.25c0,.48.33,1.07.75,1.31l.86.49c.42.24.76.05.76-.43v-2.25c0-.48-.33-1.07-.75-1.31Z"/>
              <path class="cls-10" d="M295.64,135.86l-.85-.49c-.42-.24-.76-.05-.76.43v2.25c0,.48.33,1.07.75,1.31l.86.49c.42.24.76.05.76-.43v-2.25c0-.48-.33-1.07-.75-1.31Z"/>
              <path class="cls-10" d="M299.06,137.84l-.85-.49c-.42-.24-.76-.05-.76.43v2.25c0,.48.33,1.07.75,1.31l.86.49c.42.24.76.05.76-.43v-2.25c0-.48-.33-1.07-.75-1.31Z"/>
              <path class="cls-10" d="M305.9,141.79l-.86-.49c-.42-.24-.76-.05-.76.43v2.25c0,.48.33,1.07.75,1.31l.86.49c.42.24.76.05.76-.43v-2.25c0-.48-.33-1.07-.75-1.31Z"/>
              <path class="cls-27" d="M309.32,143.76l-.85-.49c-.42-.24-.76-.05-.76.43v2.25c0,.48.33,1.07.75,1.31l.86.49c.42.24.76.05.76-.43v-2.25c0-.48-.33-1.07-.75-1.31Z"/>
            </g>
          </g>
          <g>
            <path class="cls-27" d="M334.16,160.02c0-1.54-1.08-3.42-2.42-4.19-.66-.38-1.25-.42-1.69-.19h0s-.02,0-.02,0c0,0-.02,0-.02.01l-1.95,1.1h0c.44-.24,1.04-.19,1.7.19,1.34.77,2.42,2.65,2.42,4.19,0,.75-.27,1.29-.69,1.54l1.88-1.06c.05-.03.11-.05.16-.09h.02s0,0,0,0c.39-.27.63-.79.63-1.5Z"/>
            <path class="cls-9" d="M334.16,160.02c0-1.54-1.08-3.42-2.42-4.19-.66-.38-1.25-.42-1.69-.19h0s-.02,0-.02,0c0,0-.02,0-.02.01l-1.95,1.1h0c.44-.24,1.04-.19,1.7.19,1.34.77,2.42,2.65,2.42,4.19,0,.75-.27,1.29-.69,1.54l1.88-1.06c.05-.03.11-.05.16-.09h.02s0,0,0,0c.39-.27.63-.79.63-1.5Z"/>
            <path class="cls-26" d="M331.41,162.73h.01s-.01,0-.02,0h0Z"/>
            <path class="cls-27" d="M332.17,161.15c0-1.54-1.08-3.42-2.42-4.19-.66-.38-1.26-.42-1.7-.19-.45.25-.74.79-.74,1.58,0,1.54,1.08,3.42,2.42,4.19.65.37,1.24.42,1.67.19,0,0,.01,0,.02,0,.02,0,.04-.02.05-.03.43-.26.69-.79.69-1.54Z"/>
            <path class="cls-19" d="M332.17,161.15c0-1.54-1.08-3.42-2.42-4.19-.66-.38-1.26-.42-1.7-.19-.45.25-.74.79-.74,1.58,0,1.54,1.08,3.42,2.42,4.19.65.37,1.24.42,1.67.19,0,0,.01,0,.02,0,.02,0,.04-.02.05-.03.43-.26.69-.79.69-1.54Z"/>
          </g>
          <g>
            <path class="cls-27" d="M324.6,154.28c0-1.54-1.08-3.42-2.42-4.19-.66-.38-1.25-.42-1.69-.19h0s-.02,0-.02,0c0,0-.02,0-.02.01l-1.95,1.1h0c.44-.24,1.04-.19,1.7.19,1.34.77,2.42,2.65,2.42,4.19,0,.75-.27,1.29-.69,1.54l1.88-1.06c.05-.03.11-.05.16-.09h.02s0-.01,0-.01c.39-.27.63-.79.63-1.5Z"/>
            <path class="cls-9" d="M324.6,154.28c0-1.54-1.08-3.42-2.42-4.19-.66-.38-1.25-.42-1.69-.19h0s-.02,0-.02,0c0,0-.02,0-.02.01l-1.95,1.1h0c.44-.24,1.04-.19,1.7.19,1.34.77,2.42,2.65,2.42,4.19,0,.75-.27,1.29-.69,1.54l1.88-1.06c.05-.03.11-.05.16-.09h.02s0-.01,0-.01c.39-.27.63-.79.63-1.5Z"/>
            <path class="cls-26" d="M321.86,156.98h.01s-.01,0-.02,0h0Z"/>
            <path class="cls-27" d="M322.62,155.4c0-1.54-1.08-3.42-2.42-4.19-.66-.38-1.26-.42-1.7-.19-.45.25-.74.79-.74,1.58,0,1.54,1.08,3.42,2.42,4.19.65.37,1.24.42,1.67.19,0,0,.01,0,.02,0,.02,0,.04-.02.05-.03.43-.26.69-.79.69-1.54Z"/>
            <path class="cls-19" d="M322.62,155.4c0-1.54-1.08-3.42-2.42-4.19-.66-.38-1.26-.42-1.7-.19-.45.25-.74.79-.74,1.58,0,1.54,1.08,3.42,2.42,4.19.65.37,1.24.42,1.67.19,0,0,.01,0,.02,0,.02,0,.04-.02.05-.03.43-.26.69-.79.69-1.54Z"/>
          </g>
        </g>
      </g>
    </g>
  </g>
  <g id="Character">
    <g>
      <g>
        <g>
          <path class="cls-3" d="M364.39,256.51h7.16s8.32,54.63,8.89,65.1c0,.27-.18.54-.54.75-.71.41-1.87.41-2.58,0-.31-.18-.46-.42-.5-.65h-.03c-1-6.25-12.41-65.19-12.41-65.19Z"/>
          <path class="cls-10" d="M371.55,256.51s.36,2.35.92,6.13c-1.14,2.46-3.63,5.14-5.9,5.19-.89-4.59-2.19-11.32-2.19-11.32h7.16Z"/>
        </g>
        <g>
          <path class="cls-3" d="M372.41,302.32h-7.16s-8.32,54.63-8.89,65.1c0,.27.18.54.54.75.71.41,1.87.41,2.58,0,.31-.18.46-.42.5-.65h.03c1-6.25,12.41-65.19,12.41-65.19Z"/>
          <path class="cls-10" d="M365.25,302.32s-.36,2.35-.92,6.13c2.1.86,4.36,1.33,6.63,1.38.89-4.59,1.45-7.51,1.45-7.51h-7.16Z"/>
        </g>
        <g>
          <path class="cls-3" d="M403.66,278.66h7.16s8.32,54.63,8.89,65.1c0,.27-.18.54-.54.75-.71.41-1.87.41-2.58,0-.31-.18-.46-.42-.5-.65h-.03c-1-6.25-12.41-65.19-12.41-65.19Z"/>
          <path class="cls-10" d="M410.82,278.66s.36,2.35.92,6.13c-1.14,2.46-3.63,5.14-5.9,5.19-.89-4.59-2.19-11.32-2.19-11.32h7.16Z"/>
        </g>
        <g>
          <path class="cls-3" d="M330.04,277.91h-7.16s-8.32,54.63-8.89,65.1c0,.27.18.54.54.75.71.41,1.87.41,2.58,0,.31-.18.46-.42.5-.65h.03c1-6.25,12.41-65.19,12.41-65.19Z"/>
          <path class="cls-10" d="M322.88,277.91s-.36,2.35-.92,6.13c1.22,1.44,3.91,3.68,6.18,3.73.89-4.59,1.91-9.86,1.91-9.86h-7.16Z"/>
        </g>
        <polygon class="cls-3" points="408.31 230.13 405.17 269.95 409 272.83 412.43 231.81 408.31 230.13"/>
        <polygon class="cls-3" points="367.94 207.34 364.8 247.17 368.62 250.04 372.06 209.02 367.94 207.34"/>
        <g>
          <path class="cls-1" d="M358.29,242s-23.93,6.73-42.37,24.46v7.26c3.4,4.08,29.3,24.25,56.5,32.62,18.18-8.37,36.17-22.43,39.27-26.26v-7.26c-6.84-13.37-53.4-30.83-53.4-30.83Z"/>
          <path class="cls-4" d="M315.91,266.47v7.26c3.4,4.08,29.3,24.25,56.5,32.62v-7.26c-27.2-8.37-53.1-28.54-56.5-32.62Z"/>
          <path class="cls-9" d="M372.41,299.09v7.26c18.18-8.37,36.17-22.43,39.27-26.26v-7.26c-3.1,3.82-21.09,17.89-39.27,26.26Z"/>
        </g>
        <path class="cls-1" d="M421.26,221.96c0-.55-.14-1.11-.47-1.62-15.95-25-49.01-32.72-56.34-30.82l-3.43,3.46v17.92c25.5,3.25,47.38,19.87,56.2,32.7l1.18-.46c1.73-.68,2.86-2.35,2.86-4.2v-16.98h-.01Z"/>
        <path class="cls-19" d="M421.26,221.96c.01,1.29-.75,2.54-2.07,3.01l-1.95.7v17.92l1.18-.46c1.73-.68,2.86-2.35,2.86-4.2v-16.98h-.01Z"/>
        <path class="cls-5" d="M417.24,225.67l1.95-.7c1.32-.47,2.09-1.72,2.07-3.01,0-.55-.14-1.11-.47-1.62-15.95-25-49.01-32.72-56.34-30.82l-3.43,3.46c7.36-1.36,43.69,5.91,56.2,32.7Z"/>
        <path class="cls-10" d="M361.03,192.97v17.92c25.5,3.25,47.38,19.87,56.2,32.7v-17.92c-12.52-26.78-48.85-34.05-56.2-32.7Z"/>
      </g>
      <g>
        <g>
          <g>
            <path class="cls-1" d="M313.29,385.45l.99,5.94c4.71-2.24,6.23-4.77,6.23-4.77.12-4.56.07-9.25.03-11.53-1.25,2.77-3.99,4.64-5.7,7.2-.66.99-1.15,2.05-1.55,3.16Z"/>
            <path class="cls-1" d="M311.78,390.74l2.5.64-.99-5.94c-.62,1.71-1.02,3.52-1.51,5.29Z"/>
            <path class="cls-9" d="M313.29,385.45l.99,5.94c4.71-2.24,6.23-4.77,6.23-4.77.12-4.56.07-9.25.03-11.53-1.25,2.77-3.99,4.64-5.7,7.2-.66.99-1.15,2.05-1.55,3.16Z"/>
            <path class="cls-10" d="M311.78,390.74l2.5.64-.99-5.94c-.62,1.71-1.02,3.52-1.51,5.29Z"/>
            <path class="cls-1" d="M320.77,368.51c-.46-1.58-1.18-3.07-1.95-4.53.04,2.37-.91,4.79-2.18,6.84-1.7,2.73-3.96,5.09-5.59,7.87-1.98,3.38-3.01,7.35-5.61,10.28-2.53,2.85-6.47,4.38-10.26,4-1.4-.14-2.87-.59-3.76-1.69-.4-.5-.61-1.15-.62-1.79-1.29,1.37-2.69,2.63-4.23,3.71-1.71,1.2-3.77,2.46-4.05,4.53-.23,1.71.95,3.37,2.46,4.21,1.51.84,3.29,1.02,5.01,1.12,3.7.21,7.48.13,11.03-.94,3.55-1.07,6.89-3.21,8.8-6.39.92-1.53,1.49-3.23,1.97-4.97.49-1.77.9-3.58,1.51-5.29.4-1.11.89-2.18,1.55-3.16,1.71-2.56,4.45-4.43,5.7-7.2.07-.15.15-.29.21-.44.73-1.95.6-4.14.02-6.14Z"/>
            <path class="cls-24" d="M295.17,392.96c3.79.38,7.73-1.15,10.26-4,2.6-2.93,3.63-6.9,5.61-10.28,1.63-2.78,3.89-5.13,5.59-7.87,1.27-2.05,2.22-4.47,2.18-6.84.45-1.77,1.36-3.87,1.15-4.25-4.88-.43-8.13-1.65-13.59-2.42-1.65,5.14-7.16,18.72-9.62,23.52-1.6,3.12-3.57,6.1-5.97,8.65.01.64.22,1.29.62,1.79.89,1.1,2.36,1.55,3.76,1.69Z"/>
          </g>
          <path class="cls-16" d="M327.26,332.24c-.59,9.45-3,16.3-4.86,29.18,0,0-11.31,3.38-18.36-1.55l-.29-19.84,23.51-7.79Z"/>
        </g>
        <g>
          <g>
            <path class="cls-1" d="M278.02,371.81l.99,5.94c4.71-2.24,6.23-4.77,6.23-4.77.12-4.56.07-9.25.03-11.53-1.25,2.77-3.99,4.64-5.7,7.2-.66.99-1.15,2.05-1.54,3.16Z"/>
            <path class="cls-1" d="M276.5,377.11l2.5.64-.99-5.94c-.62,1.71-1.02,3.52-1.51,5.29Z"/>
            <path class="cls-9" d="M278.02,371.81l.99,5.94c4.71-2.24,6.23-4.77,6.23-4.77.12-4.56.07-9.25.03-11.53-1.25,2.77-3.99,4.64-5.7,7.2-.66.99-1.15,2.05-1.54,3.16Z"/>
            <path class="cls-10" d="M276.5,377.11l2.5.64-.99-5.94c-.62,1.71-1.02,3.52-1.51,5.29Z"/>
            <path class="cls-1" d="M285.49,354.87c-.46-1.58-1.18-3.07-1.95-4.53.04,2.37-.91,4.79-2.18,6.84-1.7,2.73-3.96,5.09-5.59,7.87-1.98,3.38-3.01,7.35-5.61,10.28-2.53,2.85-6.47,4.38-10.26,4-1.4-.14-2.87-.59-3.76-1.69-.4-.5-.61-1.15-.62-1.79-1.29,1.37-2.69,2.63-4.23,3.71-1.71,1.2-3.77,2.46-4.05,4.53-.23,1.71.95,3.37,2.46,4.21,1.51.84,3.29,1.02,5.01,1.12,3.7.21,7.48.13,11.03-.94,3.55-1.07,6.89-3.21,8.8-6.39.92-1.53,1.49-3.23,1.97-4.97.49-1.77.9-3.58,1.51-5.29.4-1.11.89-2.18,1.54-3.16,1.71-2.56,4.45-4.43,5.7-7.2.07-.15.15-.29.21-.44.73-1.95.6-4.14.02-6.14Z"/>
            <path class="cls-24" d="M259.9,379.32c3.79.38,7.73-1.15,10.26-4,2.6-2.93,3.63-6.9,5.61-10.28,1.63-2.78,3.89-5.13,5.59-7.87,1.27-2.05,2.22-4.47,2.18-6.84.45-1.77,1.36-3.87,1.15-4.25-4.88-.43-8.13-1.65-13.59-2.42-1.65,5.14-7.16,18.72-9.62,23.52-1.6,3.12-3.57,6.1-5.97,8.65.01.64.22,1.29.62,1.79.89,1.1,2.36,1.55,3.76,1.69Z"/>
          </g>
          <path class="cls-16" d="M295.59,321.18c-2.18,9.21-5.72,15.55-9.73,27.94,0,0-11.72,1.41-17.83-4.64l5.26-32.35,22.3,9.05Z"/>
        </g>
      </g>
      <g>
        <path class="cls-16" d="M367.34,295.64c6.77-2.91,37.39-18.16,17.12-47.76l-50.25-7.21c-1.64,15.77-16.14,26.1-16.14,26.1l49.27,28.87Z"/>
        <g>
          <path class="cls-24" d="M357.28,257.03c9.66-.54,19.15-3.76,27.18-9.15-1.99-3.61-4.54-7.31-7.76-11.15l-44.86,4.03c-.44,3.72-.77,7.39-1,11.02,8.19,3.92,17.37,5.76,26.44,5.26Z"/>
          <path class="cls-12" d="M329.14,178.36c-.19-1.18-.16-2.39.1-3.55.23-1.02,3.07-6.99,2.69-7.38-2.38-2.42-3.9-5.67-4.23-9.05-.32-3.38.55-6.86,2.43-9.69-2.04-.74-3.37-3.02-3.19-5.18.19-2.16,1.95-4.09,4.09-4.46,1.81-.32,3.63.38,5.43.77,3.06.66,6.24.44,9.34,0,3.1-.45,6.17-1.12,9.29-1.35,3.12-.23,6.35.01,9.2,1.31,2.85,1.3,5.28,3.77,5.95,6.83,4.63-.91,9.99,2.87,10.86,7.51.84,4.5-1.81,9.02-1.4,13.58.28,3.08,1.95,5.89,3.96,8.24,2.02,2.35,4.41,4.35,6.51,6.62,5.76,6.2,9.28,14.44,9.78,22.89.28,4.76-.43,9.75-3.09,13.71-5.23,7.78-19.24,9.73-27.84,9.4-8.77-.33-17.43-3.26-24.6-8.33-4.96-3.5-9.5-8.71-9.33-14.78.08-2.86,1.2-5.56,1.96-8.32.76-2.75,1.13-5.83-.2-8.36-1.38-2.64-4.3-4.1-6.08-6.49-.85-1.14-1.4-2.5-1.63-3.91Z"/>
          <g>
            <path class="cls-24" d="M341.42,201.39c1.3,1.07,3.11,1.28,4.79,1.28,4.61,0,9.21-1.21,13.22-3.47,3.18-1.79,5.98-4.25,8.2-7.15l-4.76-.41v-15.31l-16.54,6.38v8.84h-4.23c-.85,1.1-1.59,2.27-2.03,3.59-.71,2.15-.4,4.81,1.35,6.25Z"/>
            <path class="cls-15" d="M361.71,176.77c-2.69,6.06-8.04,11.26-15.38,12.12v-6.18l15.38-5.94Z"/>
          </g>
          <path class="cls-24" d="M359.93,164.54c-.17.97-.34,2.91-.18,3.88.16.97.57,1.91,1.28,2.59.71.67,1.65.97,2.61.77-.51-2.53,1.25-5.29,3.75-5.91,2.5-.61,5.34,1.03,6.05,3.51.51,1.78,0,3.74-1.06,5.26s-2.59,2.64-4.22,3.52c-1.92.7-4.08-.22-5.1-2-4.91,6.23-13.49,10.91-21.52,10.23-2.18-.18-4.38-.81-6.11-2.15-3.04-2.35-3.26-5.9-3.65-9.4-.49-4.43-.61-8.94.1-13.35.98-6.1,3.7-12.1,8.44-16.07,2.75,13.27,14.92,18.15,19.58,19.13Z"/>
          <g>
            <polygon class="cls-15" points="343.2 163.04 337.71 169.81 342.82 171.57 343.2 163.04"/>
            <path class="cls-15" d="M347.51,174.87c-1.43.45-2.85.9-4.28,1.36.45.99,1.86,1.6,2.9,1.31,1.05-.3,1.52-1.58,1.38-2.66Z"/>
            <path class="cls-10" d="M347.51,174.87c-1.43.45-2.85.9-4.28,1.36.45.99,1.86,1.6,2.9,1.31,1.05-.3,1.52-1.58,1.38-2.66Z"/>
            <path class="cls-15" d="M344.73,177.46c.47.16.97.2,1.41.07.82-.23,1.28-1.08,1.38-1.95-.57-.08-1.16.02-1.65.32-.57.34-.97.92-1.13,1.56Z"/>
            <path class="cls-12" d="M350.78,164.45c-.04.84-.75,1.49-1.59,1.46-.84-.04-1.49-.75-1.46-1.59.04-.84.75-1.49,1.59-1.46.84.04,1.49.75,1.46,1.59Z"/>
            <path class="cls-12" d="M338,163.38c-.04.84-.75,1.49-1.59,1.46-.84-.04-1.49-.75-1.46-1.59.04-.84.75-1.49,1.59-1.46.84.04,1.49.75,1.46,1.59Z"/>
            <path class="cls-12" d="M336.79,157.24c-1.16.73-2.32,1.46-3.48,2.19-.3-.82.07-1.84.77-2.36.7-.52,2.02-.34,2.72.18Z"/>
            <path class="cls-12" d="M349.85,157.65c1.09.83,2.18,1.66,3.27,2.49.37-.79.1-1.84-.55-2.42-.65-.58-1.98-.52-2.72-.07Z"/>
          </g>
          <path class="cls-1" d="M386.35,248.59c-8.54-12.84-9.05-21.83-4.79-29.41,1.3-2.31,1.08-11.58.71-18.38-.23-4.32-3.6-7.81-7.91-8.18l-6.73-.58c-2.22,2.9-5.01,5.36-8.2,7.15-4.01,2.26-8.61,3.47-13.22,3.47-2.5,0-5.26-.44-6.26-3.51-.28-.84-.34-1.75-.21-2.63.27-1.9,1.22-3.5,2.36-4.98h-4.12c-4.94,4.39-14.27,22.16-14.85,31.72-.29,4.8,3.41,7.15,5.97,8.64,0,0,1.74,7.08-.85,20.22,12.61,8.89,41.98,9.83,58.1-3.55Z"/>
          <path class="cls-9" d="M365.42,223.19c-2.29,3.29-5.73,5.77-9.58,6.9-3.85,1.13-8.08.91-11.79-.62,3.14,3.07,7.94,4.49,12.2,3.4,4.25-1.09,7.9-5.47,9.17-9.68Z"/>
        </g>
        <g>
          <path class="cls-25" d="M362.87,190.16v1.47l-8.14,34.03s.86,17.94,11.69,38.26c12.31,2.32,22.25-4.42,24.87-7.77-7.46-10.16-12.4-30.03-12.4-30.03l-1.27-33.43-13.77-.95-.98-1.58Z"/>
          <path class="cls-25" d="M362.87,191.63v-1.47l3.89,6.93c.45.81.34,1.82-.28,2.51l-4.39,4.9,2.25,2.14c.74.7.89,1.83.36,2.7l-9.97,16.32,8.14-34.03Z"/>
          <path class="cls-5" d="M362.87,191.63v-1.47l3.89,6.93c.45.81.34,1.82-.28,2.51l-4.39,4.9,2.25,2.14c.74.7.89,1.83.36,2.7l-9.97,16.32,8.14-34.03Z"/>
          <path class="cls-9" d="M368.73,199.28l-9.38,40.86-1.94.71.85-5.54c1.9-12.42,5.43-24.53,10.48-36.03h0Z"/>
          <path class="cls-9" d="M378.95,246.77l1.88-13.89c-1.25-3.99-1.93-6.75-1.93-6.75l-.29-7.72-16.93,35.29c.62,1.54,1.29,3.12,2.03,4.72l5.85-1.35c4.97-1.14,8.71-5.25,9.39-10.3Z"/>
        </g>
        <g>
          <path class="cls-25" d="M330.28,254.21c-.07-11.46.04-24.76,1.13-32.14,3.69-16.63,8.52-22.84,12.61-30.51h2.32v-2.66l-3.68,2.66h-4.67c-16.94,19.95-16.86,30.93-16.96,34.11-.11,3.18.5,23.49.5,23.49l8.75,5.05Z"/>
          <path class="cls-25" d="M336.58,195.94c-.61.44-.95,1.17-.89,1.92l.31,4.01-3.85,1.5c-.88.34-1.44,1.22-1.38,2.16l.97,15.12c3.65-15.56,8.31-21.66,12.28-29.11h2.32v-2.66l-9.76,7.05Z"/>
          <g class="cls-10">
            <path class="cls-8" d="M336.58,195.94c-.61.44-.95,1.17-.89,1.92l.31,4.01-3.85,1.5c-.88.34-1.44,1.22-1.38,2.16l.97,15.12c3.65-15.56,8.31-21.66,12.28-29.11h2.32v-2.66l-9.76,7.05Z"/>
          </g>
        </g>
      </g>
      <g>
        <g>
          <polygon class="cls-25" points="171.89 265.35 171.89 362.96 175.34 360.96 175.34 263.35 171.89 265.35"/>
          <polygon class="cls-16" points="171.89 265.35 171.89 362.96 168.44 360.96 168.44 263.35 171.89 265.35"/>
          <polygon class="cls-25" points="175.34 291.38 256.12 244.74 256.12 241.03 175.34 287.67 175.34 291.38"/>
          <polygon class="cls-16" points="175.34 283.75 252.67 239.03 256.12 241.03 175.34 287.67 175.34 283.75"/>
        </g>
        <g>
          <polygon class="cls-25" points="397.21 298.23 397.21 395.84 400.66 393.84 400.66 296.23 397.21 298.23"/>
          <polygon class="cls-16" points="397.21 298.23 397.21 395.84 393.75 393.84 393.75 296.23 397.21 298.23"/>
          <polygon class="cls-25" points="312.97 346.88 312.97 444.49 316.42 442.5 316.42 344.88 312.97 346.88"/>
          <polygon class="cls-16" points="312.97 346.88 312.97 444.49 309.52 442.5 309.52 344.88 312.97 346.88"/>
          <polygon class="cls-25" points="316.42 372.91 397.21 326.27 397.21 322.56 316.42 369.2 316.42 372.91"/>
          <polygon class="cls-16" points="316.42 365.28 393.75 320.57 397.21 322.56 316.42 369.2 316.42 365.28"/>
        </g>
        <g class="cls-9">
          <polygon class="cls-8" points="397.21 298.23 397.21 395.84 400.66 393.84 400.66 296.23 397.21 298.23"/>
          <polygon class="cls-8" points="397.21 298.23 397.21 395.84 393.75 393.84 393.75 296.23 397.21 298.23"/>
          <polygon class="cls-8" points="312.97 346.88 312.97 444.49 316.42 442.5 316.42 344.88 312.97 346.88"/>
          <polygon class="cls-8" points="312.97 346.88 312.97 444.49 309.52 442.5 309.52 344.88 312.97 346.88"/>
          <polygon class="cls-8" points="316.42 372.91 397.21 326.27 397.21 322.56 316.42 369.2 316.42 372.91"/>
          <polygon class="cls-8" points="316.42 365.28 393.75 320.57 397.21 322.56 316.42 369.2 316.42 365.28"/>
        </g>
        <g class="cls-9">
          <polygon class="cls-8" points="171.89 265.35 171.89 362.96 175.34 360.96 175.34 263.35 171.89 265.35"/>
          <polygon class="cls-8" points="171.89 265.35 171.89 362.96 168.44 360.96 168.44 263.35 171.89 265.35"/>
          <polygon class="cls-8" points="175.34 291.38 256.12 244.74 256.12 241.03 175.34 287.67 175.34 291.38"/>
          <polygon class="cls-8" points="175.34 283.75 252.67 239.03 256.12 241.03 175.34 287.67 175.34 283.75"/>
        </g>
        <g>
          <polygon class="cls-1" points="312.97 337.45 168.43 254.21 256.12 203.56 400.66 286.81 312.97 337.45"/>
          <polygon class="cls-1" points="312.97 346.88 168.43 263.35 168.43 254.21 312.97 337.45 312.97 346.88"/>
          <polygon class="cls-1" points="312.97 337.44 400.66 286.79 400.66 296.23 312.97 346.88 312.97 337.44"/>
          <polygon class="cls-6" points="312.97 337.45 168.43 254.21 256.12 203.56 400.66 286.81 312.97 337.45"/>
          <polygon class="cls-5" points="312.97 337.44 400.66 286.79 400.66 296.23 312.97 346.88 312.97 337.44"/>
          <polygon class="cls-4" points="312.97 346.88 168.43 263.35 168.43 254.21 312.97 337.45 312.97 346.88"/>
        </g>
      </g>
      <g>
        <path class="cls-21" d="M320.26,311.97c-4.18-2.41-10.93-2.41-15.09,0-4.15,2.41-4.13,6.33.05,8.74,4.18,2.41,10.94,2.41,15.09,0,4.15-2.41,4.13-6.33-.05-8.74Z"/>
        <g>
          <g>
            <path class="cls-8" d="M323.88,296.79l-11.47.33-11.47-.33c-.49,7.74,1.02,15.64,3.1,19.49h0c.37.84,1.12,1.65,2.27,2.31,3.38,1.95,8.85,1.95,12.21,0,1.17-.68,1.91-1.5,2.27-2.37,2.07-3.88,3.56-11.72,3.07-19.43Z"/>
            <path class="cls-2" d="M320.5,292.09c4.49,2.59,4.52,6.8.05,9.39-4.46,2.59-11.72,2.59-16.22,0-4.49-2.59-4.52-6.8-.05-9.39,4.46-2.59,11.72-2.59,16.22,0Z"/>
            <path class="cls-27" d="M318.72,293.12c3.51,2.02,3.52,5.31.04,7.33-3.48,2.02-9.15,2.02-12.65,0-3.51-2.02-3.52-5.3-.04-7.33,3.48-2.02,9.15-2.02,12.65,0Z"/>
            <g class="cls-20">
              <path d="M318.72,293.12c3.51,2.02,3.52,5.31.04,7.33-3.48,2.02-9.15,2.02-12.65,0-3.51-2.02-3.52-5.3-.04-7.33,3.48-2.02,9.15-2.02,12.65,0Z"/>
            </g>
          </g>
          <g>
            <path class="cls-1" d="M311.46,297.11c1.93,1.58,4.5,2.16,6.73,1.53,2.22-.63,4.02-2.46,4.71-4.77-1.4-.61-2.51-1.51-3.68-2.55,1.64-.43,3.54-.36,5.21.18.9-1.38,1.13-3.36.39-4.97-1.98-.87-4.25-1.03-6.22-.43,1.74-1.51,3.96-2.21,6.29-1.98.23-5.64-1.51-9.66-1.51-9.66-4.28.22-8.42,2.07-9.82,3.39-.24,1.71.47,4.54.47,4.54-1.95-1.08-1.99-2.94-1.99-2.94-2.68.67-3.82,2-4.24,3.02.2,1.68,1.74,4.48,2.53,5.13-2.51-.76-3.53-3.56-3.53-3.56-2.47,5.86-2,12.48,4.64,13.05Z"/>
            <path class="cls-9" d="M311.46,297.11c1.93,1.58,4.5,2.16,6.73,1.53,2.22-.63,4.02-2.46,4.71-4.77-1.4-.61-2.51-1.51-3.68-2.55,1.64-.43,3.54-.36,5.21.18.9-1.38,1.13-3.36.39-4.97-1.98-.87-4.25-1.03-6.22-.43,1.74-1.51,3.96-2.21,6.29-1.98.23-5.64-1.51-9.66-1.51-9.66-4.28.22-8.42,2.07-9.82,3.39-.24,1.71.47,4.54.47,4.54-1.95-1.08-1.99-2.94-1.99-2.94-2.68.67-3.82,2-4.24,3.02.2,1.68,1.74,4.48,2.53,5.13-2.51-.76-3.53-3.56-3.53-3.56-2.47,5.86-2,12.48,4.64,13.05Z"/>
            <path class="cls-5" d="M311.46,297.11c1.93,1.58,4.5,2.16,6.73,1.53,2.22-.63,4.02-2.46,4.71-4.77-1.4-.61-2.51-1.51-3.68-2.55,1.64-.43,3.54-.36,5.21.18.9-1.38,1.13-3.36.39-4.97-1.98-.87-4.25-1.03-6.22-.43,1.74-1.51,3.96-2.21,6.29-1.98.23-5.64-1.51-9.66-1.51-9.66-4.28.22-8.42,2.07-9.82,3.39-.24,1.71.47,4.54.47,4.54-1.95-1.08-1.99-2.94-1.99-2.94-2.68.67-3.82,2-4.24,3.02.2,1.68,1.74,4.48,2.53,5.13-2.51-.76-3.53-3.56-3.53-3.56-2.47,5.86-2,12.48,4.64,13.05Z"/>
            <path class="cls-22" d="M311.31,297.75s-.01,0-.02,0c-.14-.01-.24-.13-.23-.26.41-5.4,3.5-14.31,10.86-21.66.1-.1.25-.1.35,0,.1.1.1.25,0,.35-7.27,7.26-10.32,16.04-10.72,21.35,0,.13-.12.23-.25.23Z"/>
          </g>
          <g>
            <path class="cls-1" d="M313.33,300c-1.71,1.39-4.09,1.91-6.22,1.35-2.13-.56-3.95-2.18-4.75-4.24,1.29-.54,2.28-1.33,3.32-2.26-1.58-.39-3.37-.34-4.93.15-.95-1.23-1.29-3-.69-4.43,1.82-.76,3.97-.89,5.87-.35-1.74-1.35-3.89-1.99-6.09-1.81-.58-5.04.82-8.62.82-8.62,4.08.25,8.11,1.93,9.51,3.13.33,1.52-.16,4.03-.16,4.03,1.77-.95,1.69-2.59,1.69-2.59,2.55.62,3.7,1.81,4.16,2.72-.08,1.48-1.36,3.95-2.06,4.53,2.31-.66,3.09-3.13,3.09-3.13,2.66,5.19,2.62,11.03-3.55,11.52Z"/>
            <path class="cls-5" d="M313.33,300c-1.71,1.39-4.09,1.91-6.22,1.35-2.13-.56-3.95-2.18-4.75-4.24,1.29-.54,2.28-1.33,3.32-2.26-1.58-.39-3.37-.34-4.93.15-.95-1.23-1.29-3-.69-4.43,1.82-.76,3.97-.89,5.87-.35-1.74-1.35-3.89-1.99-6.09-1.81-.58-5.04.82-8.62.82-8.62,4.08.25,8.11,1.93,9.51,3.13.33,1.52-.16,4.03-.16,4.03,1.77-.95,1.69-2.59,1.69-2.59,2.55.62,3.7,1.81,4.16,2.72-.08,1.48-1.36,3.95-2.06,4.53,2.31-.66,3.09-3.13,3.09-3.13,2.66,5.19,2.62,11.03-3.55,11.52Z"/>
            <path class="cls-8" d="M313.49,300.59c-.12,0-.23-.09-.24-.21-.7-4.7-4.12-12.5-11.44-19.02-.1-.09-.11-.25-.02-.35.09-.1.25-.11.35-.02,7.42,6.61,10.88,14.54,11.6,19.32.02.14-.07.26-.21.28-.01,0-.03,0-.04,0Z"/>
          </g>
        </g>
      </g>
      <g>
        <path class="cls-27" d="M241.78,250.71l34.07-19.8c1.93-1.12,5.05-1.12,6.99,0l56.22,32.46c.92.53,1.4,1.22,1.44,1.92h.02v2.16h-.03c0,.15,0,.3-.04.45,0,.01,0,.03,0,.04-.05.16-.14.32-.24.48-.01.02-.02.03-.03.05-.11.16-.26.32-.42.47,0,0-.02.02-.03.03-.18.16-.39.31-.63.45l-34.07,19.8c-.3.17-.63.31-.98.43-.12.04-.25.08-.37.11-.16.05-.33.09-.5.12-.2.04-.4.08-.61.1-.05,0-.1.02-.14.02-.28.03-.55.04-.83.05-.04,0-.09,0-.13,0-.28,0-.55-.02-.82-.05-.04,0-.08,0-.12-.01-.27-.03-.54-.08-.8-.14-.05-.01-.1-.02-.14-.04-.24-.06-.46-.13-.69-.21-.04-.01-.08-.03-.12-.04-.27-.1-.52-.22-.75-.36l-56.22-32.46c-.24-.14-.46-.29-.64-.45-.06-.06-.1-.12-.16-.17-.1-.11-.22-.21-.3-.33-.05-.07-.07-.14-.11-.21-.06-.11-.13-.21-.16-.32-.03-.08-.02-.16-.04-.23-.02-.11-.05-.21-.05-.32v-1.99c0-.73.48-1.46,1.45-2.02Z"/>
        <path class="cls-10" d="M340.5,265.29c.01.21,0,.41-.06.62,0,.01,0,.03,0,.04-.05.16-.14.32-.24.48-.01.02-.02.03-.03.05-.11.16-.26.32-.42.47,0,0-.02.02-.03.03-.18.16-.39.31-.63.45l-34.07,19.8c-.3.17-.63.31-.98.43-.12.04-.25.08-.37.11-.16.05-.33.09-.5.12-.2.04-.4.08-.61.1-.05,0-.1.01-.14.02-.28.03-.55.04-.83.05-.04,0-.09,0-.13,0-.28,0-.55-.02-.82-.05-.04,0-.08,0-.12-.01-.27-.03-.54-.08-.8-.14-.05-.01-.1-.02-.14-.03-.24-.06-.46-.13-.69-.21-.04-.01-.08-.03-.12-.04-.27-.1-.52-.22-.75-.36l-56.22-32.46c-.24-.14-.46-.29-.64-.45-.06-.06-.1-.12-.16-.17-.1-.11-.22-.21-.3-.33-.05-.07-.07-.14-.11-.21-.06-.11-.13-.21-.16-.32-.03-.08-.02-.15-.04-.23-.02-.11-.05-.21-.05-.32v1.99c0,.11.03.21.05.32.02.08.01.16.04.23.04.11.11.21.16.32.04.07.06.14.11.21.08.11.19.22.3.33.06.06.1.12.16.17.18.16.39.31.64.45l56.22,32.46c.23.14.49.25.75.36.04.02.08.03.12.04.22.08.45.15.69.21.05.01.09.02.14.04.26.06.53.1.8.14.04,0,.08,0,.12.01.27.03.55.04.82.05.04,0,.09,0,.13,0,.28,0,.56-.02.83-.05.05,0,.1-.01.14-.02.21-.03.41-.06.61-.1.17-.03.33-.08.5-.12.13-.04.25-.07.37-.11.35-.12.68-.26.98-.43l34.07-19.8c.24-.14.45-.29.63-.45,0,0,.02-.02.03-.03.17-.15.31-.31.42-.47.01-.02.02-.03.03-.05.1-.16.19-.32.24-.48,0-.01,0-.03,0-.04.04-.15.04-.3.04-.45h.03s0-2.16,0-2.16h-.02Z"/>
        <path class="cls-27" d="M245.1,252.74l54.61,31.53c.06.03.12.06.21.1l.12.04c.1.04.21.07.43.12.15.04.3.06.3.06l.21.02c.15.02.3.02.53.03h.05c.17,0,.34-.01.56-.04.12-.01.23-.04.36-.06.09-.02.44-.12.44-.12.13-.04.26-.09.38-.16l17.57-10.21-56.41-32.57-19.35,11.25Z"/>
        <path class="cls-13" d="M301.58,284.65s-.04,0-.06,0h-.02.08Z"/>
        <path class="cls-27" d="M297.06,244.07l-10.27,6.04c-.69.4-.68,1.4,0,1.8l15.36,8.87c.53.31,1.19.31,1.72,0l10.27-6.04c.69-.4.68-1.4,0-1.8l-15.36-8.87c-.53-.31-1.19-.31-1.72,0Z"/>
        <path class="cls-9" d="M245.1,252.74l54.61,31.53c.06.03.12.06.21.1l.12.04c.1.04.21.07.43.12.15.04.3.06.3.06l.21.02c.15.02.3.02.53.03h.05c.17,0,.34-.01.56-.04.12-.01.23-.04.36-.06.09-.02.44-.12.44-.12.13-.04.26-.09.38-.16l17.57-10.21-56.41-32.57-19.35,11.25Z"/>
        <path class="cls-9" d="M297.06,244.07l-10.27,6.04c-.69.4-.68,1.4,0,1.8l15.36,8.87c.53.31,1.19.31,1.72,0l10.27-6.04c.69-.4.68-1.4,0-1.8l-15.36-8.87c-.53-.31-1.19-.31-1.72,0Z"/>
      </g>
      <g>
        <path class="cls-12" d="M322.4,252.91c-3.12,4.21-.54,10.84,3.48,11.61,6.77-3.84,1.94-10.97-3.48-11.61Z"/>
        <g>
          <path class="cls-15" d="M308.01,254.54l-6.31,2.75c-.63.27-1.01.91-.95,1.59h0c.07.82.76,1.45,1.58,1.45h5.94l-.26-5.8Z"/>
          <path class="cls-24" d="M317.09,255.48l-5.62-2.61c-1.41-.65-3.07-.38-4.19.7l-4,3.83c-.54.52-.87,1.21-.94,1.95l-.4,4.09c-.07.73.4,1.4,1.11,1.57h0c.87.22,1.74-.39,1.83-1.28l.36-3.58,2.09-2.32-1.16,1.79c-.31.47-.46,1.03-.44,1.59l.1,3.08c.03.98.61,1.86,1.49,2.28l4.87,2.33c.84.4,1.82.33,2.59-.19,0,0,1.55-1.06,2.12-1.63.56-.56.18-1.4.18-1.4l2.24-1.62,44.93-7.7-10.83-14.07-36.34,13.19Z"/>
          <path class="cls-15" d="M317.09,265.67c-2.05.84-3.09.52-3.09.52.36-1.11.11-3.05.11-3.05.93,1.33.9,2.3.9,2.3,0,0,.77.49,2.08.22Z"/>
        </g>
        <path class="cls-25" d="M377.63,192.7c-4.18-.3-7.95,2.49-8.89,6.58l-9.38,40.86-5.93,2.15-31.02,10.62c5.28,3.97,3.48,11.61,3.48,11.61l38.38-8.16c6.69-1.15,11.97-6.32,13.26-12.98l7.85-40.58c.97-5.01-2.66-9.74-7.75-10.1Z"/>
        <path class="cls-19" d="M359.35,240.13c4.14.04,7.39,4.28,7.8,5.86.81-8.35-4.04-8.68-7.46-7.34l-.34,1.48Z"/>
      </g>
      <g>
        <path class="cls-25" d="M335.72,191.5c-6.79-.16-13.39,2.24-18.49,6.72l-23.32,20.45c-1.51,1.32-2.83,2.85-3.91,4.53l-12.16,18.83,12.19,8.09,13.02-18.79,19.12-13.33c1.63-5.77,5.67-14.5,15.82-26.45l-2.26-.05Z"/>
        <path class="cls-9" d="M316.25,222.13l5.91-4.12c1.29-4.58,4.12-11.03,10.29-19.47-7.33,6.28-12.99,14.49-16.21,23.59Z"/>
      </g>
      <g>
        <path class="cls-27" d="M232.6,211.02h-.01s1.35-.68,1.35-.68h0c.46-.18,1-.19,1.5.1l56.61,32.91c1.78,1.03,3,2.81,3.32,4.85l5.82,37.01c.13.81-.32,1.48-.95,1.79h.02s-1.3.65-1.3.65h0c-.45.16-.97.16-1.46-.12l-56.61-32.91c-1.78-1.03-3-2.81-3.32-4.84l-5.82-37.01c-.12-.76.27-1.41.85-1.74Z"/>
        <path class="cls-8" d="M263.47,244.89c2.74,1.58,5.25,5.2,5.62,8.09.37,2.89-1.54,3.96-4.28,2.38-2.73-1.58-5.25-5.2-5.62-8.09-.37-2.89,1.55-3.95,4.28-2.38Z"/>
        <path class="cls-10" d="M300.03,285.78l-5.82-37.01c-.32-2.03-1.54-3.81-3.32-4.85l-56.61-32.91c-.57-.33-1.2-.28-1.7,0h-.01s1.35-.68,1.35-.68h0c.46-.18,1-.19,1.5.1l56.61,32.91c1.78,1.03,3,2.81,3.32,4.85l5.82,37.01c.13.81-.32,1.48-.95,1.79h.02s-1.3.65-1.3.65h0c.71-.28,1.23-1,1.09-1.87Z"/>
      </g>
    </g>
  </g>
</svg>